<?xml version="1.0"?>
<svg xmlns="http://www.w3.org/2000/svg" version="1.2" baseProfile="tiny" width="800" height="1331" viewBox="0 0 800 1331" stroke-linecap="round" stroke-linejoin="round">
<g id="gadm41_ARG_1">
<path d="M 431.4 769.36 430.72 767.52 426.52 763.3 425.06 761.48 420.98 759.37 418.93 758.83 415.29 757.17 412.03 757.37 407.54 756.8 407.63 736.97 407.41 728.47 407.43 703.33 407.5 701.32 407.43 700.44 407.47 651.49 407.31 648.97 407.48 571.19 407.51 551.8 407.32 528.69 407.4 508.23 407.29 504.18 427.48 504.12 443.9 504.07 462.9 504.09 474.27 503.93 480.21 498.73 490.57 488.76 499.97 480.02 506.3 474.27 506.37 472.47 508.18 470.82 510.47 470.64 512.95 471.98 514.88 471.81 518.06 473.62 521.21 474.58 524.46 473.97 524.79 471.87 526.33 470.5 526.71 467.17 529.81 464.7 530.45 462.4 531.61 461.62 532.93 459.22 534.87 460.38 535.53 462.39 537.67 463.28 542.06 466.96 544.95 467.35 546.41 468.76 549.63 469.67 550.29 472.21 552.29 473.16 555.52 473.4 556.8 474.13 558.19 476.4 561.1 474.21 563.15 474.74 564.72 477.74 566.44 478.28 572.66 477.53 572.68 479.96 575.05 480.72 577.65 482.5 579.64 481.97 582.62 482.15 583.58 483.17 585.76 483.6 587.5 485.56 589.68 486.61 592.31 486.51 595.39 489.88 597.73 490.54 603.04 489.06 606.16 488.96 608.67 490.35 608.31 494.09 607.82 495.35 608.79 496.81 606.78 499.17 603.02 500.1 602.19 500.98 604.38 504.04 602.8 505.37 602.87 507.23 604.66 510.11 602.84 510.94 601.61 513.55 601.7 515.15 604.39 517.13 605.93 515.42 607.87 515.26 609.13 514.1 610.8 515.46 616.46 518.69 618.1 518.76 620.52 519.78 622.48 520.05 624.6 521.87 627.99 522.06 631.66 524.65 635.64 526.14 639.23 528.58 642.52 529.74 649.12 534.94 654.71 540.86 657.69 545.65 656.72 548.53 652.78 552.55 648.27 558.54 647.27 562.84 647.57 567.01 650.68 572.54 652.57 574.95 656.93 578.71 659.82 580.57 663.62 581.99 673.54 581.86 674.73 584.74 675.86 597.54 675.74 601.99 676.07 603.9 670.35 610.99 666.75 615.9 662.76 620.68 659.23 626.67 657.77 628.42 651.18 634.31 646.29 638.15 645.72 636.51 647.37 636.05 648.81 634.78 646.56 633.3 645.63 636.37 645.3 639.15 642.24 643.44 641.15 647.43 641.07 652.54 639.18 653.33 638.37 654.51 635.64 656.75 629.68 659.48 628.73 660.49 624.83 661.78 620.61 663.84 614.54 665.99 611.78 667.23 605.5 669.13 602.07 670.38 594.05 671.82 589.77 673.55 585.93 674.46 582.39 675.79 575.65 677.15 555.76 680.43 551.59 681.65 542.97 682.83 537.97 683.28 532.05 684.19 525.08 685.56 514.04 686.78 509.04 687.79 502.37 687.89 498.22 688.54 487.76 688.16 481.56 688.78 477.7 688.62 475.16 687.29 473 687.35 470.4 688.06 462.64 686.28 460.33 685.44 457.29 681.37 454.97 681.31 450.93 680.02 451.04 681.51 449.19 686.77 453.23 688.82 450.27 691.8 450.83 693.47 450.2 696.04 451.74 699.21 454.54 699.38 460.31 701.04 462.56 702.91 462.02 705.32 459.66 704.42 456.19 702.11 455.61 700.63 453.06 700.94 452.85 701.82 456.59 703.01 457.53 704.43 461.17 706.52 459.42 710.07 458.27 715.27 459.38 715.86 457.97 717.76 458.35 723.08 455.38 723.83 450.48 724.11 449.36 731.05 450.34 734.5 448.36 737.47 446.12 737.94 443.75 740.33 445.36 745 448.11 748.19 450.3 748.78 450.17 749.93 452.15 750.39 452.56 751.7 453.26 752.5 453.55 757.04 450.55 763.37 446.36 765.39 443.69 765.97 437.22 768.44 434.08 769.89 431.4 769.36 Z M 450.36 749.54 452.75 750.09 455.85 751.72 455.89 753.38 454.19 754.28 452.76 750.73 452.06 750.32 450.28 749.95 450.36 749.54 Z M 457.8 745.79 457.6 749.15 455.98 750.31 453.57 748.7 454.9 747.31 457.8 745.79 Z M 456.51 743.21 457.79 744.18 457.25 745.65 455.08 746.05 455.56 744 456.51 743.21 Z M 460.04 691.4 462.86 692.18 467.82 692.65 468.82 695.75 468.12 698.33 465.63 696.58 459.93 694.31 459.26 691.98 460.04 691.4 Z M 455.84 695.44 457.25 696.51 460.75 698.08 457.79 698.3 455.84 695.44 Z M 456.38 726.24 456.22 723.63 458.55 724.97 457.55 726.88 456.38 726.24 Z M 451 735.96 451.94 737.31 451.03 740.01 452.54 740.67 450.3 743.7 448.81 743.27 449.3 739.55 447.95 738.34 450.12 737.76 451 735.96 Z M 460.33 687.91 463.44 688.96 465.98 691.35 462.95 691.06 459.69 689.32 460.33 687.91 Z" fill-rule="evenodd" id="BuenosAires"/>
<path d="M 337.34 275.65 337.81 277.69 342.09 278.97 344.71 282.5 346.39 283.8 347.09 286.73 348.11 288.76 349.73 290.74 350.07 294 347.69 299.59 347.66 303.41 349.68 306.28 349.98 311.48 344.31 312.38 346.81 325.21 341.96 328.97 338.09 331.56 326.57 333.83 323.47 325.88 321.25 320.81 313.03 300.06 309.97 299.11 309.99 296.21 298.75 286.61 294.35 284.58 292.61 285.05 289.74 284.01 287.93 283.93 287.08 282.62 288.2 281.37 289.57 278.14 288.04 277.5 283.57 274.62 283.59 270.78 282.05 270.2 282.45 267.12 279.98 261.81 263.32 258.72 259.54 260.18 256.77 264.21 247.88 264.26 243.18 262.29 237.49 261.52 233.65 262.61 230.83 263.02 227.41 260.13 226.32 257.55 226.51 253.89 224.26 253.69 219.08 255.4 218.06 253.71 215.79 252.6 211.37 252 211.11 249.99 209.68 250.05 204.97 249.06 205.66 247.4 206.13 244.33 204.74 242.22 203.34 241.67 202.89 240.51 203.55 238.38 201.12 237.46 197.45 239.02 191.08 239.46 189.42 240.25 179.7 239.95 179.87 237.62 181.45 237 180.85 235.53 181.67 232.83 184.23 231.43 185.35 230.22 185.28 228.56 183.72 226.92 187.54 224.75 187.51 223.27 188.47 221.74 190.24 220.8 188.51 219.55 188.9 216.7 191.73 213.2 193.19 213.51 196.43 213 198.37 215.82 200.54 215.55 200.92 213.67 203.47 214.5 205.55 212.19 209.35 210.37 211.5 210.16 210.61 208.05 212.7 205.82 208.66 201.07 199.72 188.76 200.94 180.54 207.98 176.2 206.44 168.15 204.09 157.34 201.39 154.28 202.49 152.01 201.71 151.26 201.68 149.48 200.39 149.06 199.72 146.06 202.1 143.92 202.38 142.3 201.24 139.57 203.1 137.96 202.91 136.03 203.9 135.38 216.9 137.62 223.8 138.71 240.33 139.52 265.68 140.28 277.82 140.24 280.88 140.1 281.3 144.08 281.98 147.48 281.8 149.71 280.82 153.62 279.68 156.13 272.43 157.01 270.54 158.8 271.07 164.57 272.22 166.4 275.5 170.06 277.2 172.57 278.41 173.45 278.8 175.29 279.75 176.31 281.66 179.73 284.89 183.45 288.22 185.01 288.87 184.14 290.23 180.24 291.93 178.5 293.76 175.66 296.07 174.51 297.79 175.02 298.96 177.45 299.88 177.86 299.9 179.59 299 180.16 299.01 184.9 297.19 185.25 297.51 186.72 296.75 187.82 296.65 192.57 297.31 193.48 300.71 193.66 303.13 195.03 304.93 196.65 307.65 198.16 308.99 199.91 307.25 203.78 308.83 205.26 306.52 209.38 304.45 210.55 303.16 212.92 301.73 213.42 300.08 215.26 299.08 217.47 297.28 218.77 299.49 220.19 303.32 221.24 304.45 224.99 304.06 226.8 304.39 230.88 305.69 232.82 306.18 235.33 306.91 236.45 308.5 236.33 309.65 239.46 309.9 242.75 311.02 243.06 311.78 240.48 313.12 240.05 315.08 242.24 315.59 244.69 316.72 247.4 318.37 247.79 319.4 248.92 321.14 249.15 322.23 248.43 323.08 245.96 326.56 243.42 328.41 242.67 335.77 246.44 336.3 247.98 338.43 256.68 339.13 267.78 338.08 273.36 336.43 273.32 335.87 275.12 337.34 275.65 Z" id="Catamarca"/>
<path d="M 608.28 203.66 605.59 205.64 603.2 206.38 603.75 208.73 602.54 209.35 602.83 210.79 600.95 210.59 600.48 213.29 597.26 214.02 596.36 215.94 599.11 218.23 598.6 220.86 597.22 222.93 592.12 224.29 589.43 227.18 587.38 228.33 588.12 230.97 587.69 233.07 589.87 235.89 590.41 239.97 589.87 242.91 588.83 244.36 588.63 246.03 587.15 248.99 538.93 248.93 527.39 249.02 486.21 248.97 476.39 248.95 474.29 248.77 474.43 202.83 474.55 182.35 474.58 167.55 474.49 155.33 420.88 155.3 405.94 155.18 422.02 136.74 449.09 104.93 449.11 93.57 451.46 94.46 453.59 94.59 455.93 95.84 457.77 97.72 461.15 98.12 466.52 99.83 468.31 101.31 470.46 102.12 474.46 104.57 474.63 105.86 475.84 107.28 480.07 108.71 480.22 109.61 483.2 112.28 484.59 114.19 485.38 113.81 488.14 114.71 494.13 115.26 495.05 117.51 496.15 117.38 498 121.86 499.04 122.01 501.18 124.54 502.83 125.11 503.39 126.31 505.01 127.14 506.88 129 510.32 131.71 512.56 132.19 514.94 134.32 516.84 134.47 517.76 135.95 523.01 137.21 523.88 139.67 525.49 140.54 526.19 142.33 529.98 144.84 530.95 148.18 532.48 148.37 533.84 149.92 533.38 151.03 534.19 153 535.28 153.6 535.13 154.96 538.78 155.49 541.5 156.92 542.21 158.15 548.14 161.34 549.54 164.21 552.65 166.27 552.72 167.12 554.66 169.69 556.04 170.33 556.1 173.5 564 175.58 565.78 175.25 567.11 178.72 567.41 181.17 568.68 182.41 570.01 181.99 572.19 182.82 575.2 181.93 578.29 182.02 580.02 183.74 581.14 183.62 584.38 184.56 585.45 186.35 588.1 187.87 588.5 189.21 590.92 190.15 592.27 191.33 592.83 192.86 595.02 192.47 595.56 194.39 599.8 196.33 601.33 199.12 603.39 200.9 606.79 201.48 606.85 203.13 608.28 203.66 Z" id="Chaco"/>
<path d="M 81.53 968.31 77.42 968.61 78.76 966.88 77.04 963.69 72.94 962.35 73.66 960.63 72.49 958.07 72.46 956.17 71.57 954.86 73.99 951.62 73.55 950.01 76.19 948.96 80.96 949.29 84.55 948.17 82.08 944.75 85.38 943.1 87.97 942.34 90.01 941.13 89.44 939.25 90.01 938.02 88.53 937.36 86.6 935.41 84.73 934.37 83.13 931.24 81.03 929.59 81.66 928.47 79.23 927.19 77.06 927.4 71.12 925.65 68 926.42 61.37 923.67 60.68 922.4 62.29 920.63 66.79 919.46 69.11 920.47 71.97 918.45 76.5 919.88 83.49 917.9 84.51 917.9 87.55 920.01 90.25 920.73 93.45 920.33 95.12 918.42 95.26 917.23 93.96 914.47 95.9 912.15 99.5 911.84 99.68 909.76 96.95 908.18 98.18 907.24 96.47 905.99 93.7 905.14 89.56 905.18 87.9 903.82 81.28 904.76 75.51 903.73 71.6 904.98 69.76 902.43 71.91 901.64 70.25 898.79 71.45 896.12 69.47 894.65 69.48 892.83 72.15 892.88 73.42 892.03 76.14 887.28 77.4 886.24 76.73 884.51 75.16 883.12 72.81 882.05 73.2 879.96 75.44 877.52 79.36 876.32 80.1 874.5 79.04 873.59 75.23 873.35 75.05 871.81 72.96 871.79 72.29 869.98 68.68 870.48 68.2 869.74 69.44 867.77 68.13 866.49 66.13 866.7 67.73 863.7 67.73 861.42 69.79 861.81 71.87 860.31 74.1 859.69 73.07 857.57 74.18 856.42 72.94 855.04 69.02 854.14 67.66 852.73 66.02 852.37 65.95 850.61 63.38 850 61.85 848.86 60.46 846.46 58.69 845.92 57.68 844.35 57.49 842.48 58.22 837.72 56.22 836.29 58.48 835.34 58.63 833.62 60.26 831.17 62.95 828.01 61.48 826.57 62.27 824.8 58.13 823.84 58.51 821.41 56.66 818.88 57.1 816.24 56.06 815.62 56.48 814.04 59.71 814.42 61.22 813.05 62.98 814.05 65.14 814.2 66.37 816.06 68.39 814.68 70.05 814.98 72.28 813.69 74.14 813.36 74.31 810.43 72.87 808.91 72.79 808.47 99.52 808.47 123.3 808.35 147.93 808.65 165.72 808.72 183.12 808.78 214.11 808.67 243.22 808.38 266.33 808.58 293.34 808.65 317.27 808.58 340.34 808.4 341.15 810.53 343.04 812.68 347.98 815.74 353.74 817.08 364.5 818.18 361.02 820.54 358.74 825.32 364.29 826 366.21 825.98 371.53 825.08 375.41 825.1 377.91 825.57 380.95 823.57 381.32 820.92 380.06 818.97 377.95 818.12 376.29 818.35 373.28 817.87 370.54 818.58 370.22 817.45 377.84 816.14 383.42 814.06 384.45 813.03 388.9 811.65 392.71 811.54 395.2 815.93 398.49 820.1 399.16 821.79 398.48 823.42 398.93 830.4 399.63 833.08 397.49 836.45 397.73 839.09 394.03 840.91 391.5 841.02 378.76 843.64 377.23 843.45 373.45 839.92 372.61 838.2 373.52 835.01 374.62 833.67 372.13 833.21 372.67 832.03 369.42 829.79 364.51 828.66 360.3 828.12 355.49 829.08 352.79 830.47 349.12 833.18 346.06 833.2 343.67 834.64 343.3 836.39 341.64 837.74 341.69 838.87 344.4 840.22 347.47 840.93 347.96 841.83 350.63 842.04 354.99 843.79 357.07 845.02 361.9 845.35 363.07 846.27 366.84 846.62 369.82 845.83 370.59 847.89 364.8 850.99 355.95 853.43 351.65 854.93 347.77 856.64 343.76 858.86 341.54 860.95 341 864.6 337.67 866.98 335.38 870.03 331.7 872.35 329.79 874.82 328.93 878.5 330.73 880.26 330.01 882.18 331.15 885.78 334.45 890.37 333.51 892.02 334.28 893.98 332.05 894.31 330.83 895.7 330.71 897.32 332.32 899.21 332.74 901.44 334.46 903.11 332.76 903.89 331.87 905.35 329.77 906.59 329.97 908.69 328.44 910.14 327.49 912.05 325.66 911.22 324.56 912.33 322.37 912.76 317.73 914.97 315.54 917.15 315.02 920.47 313.96 920.99 314.62 923.17 316.47 923.99 318.03 923.72 320.78 924.52 321.81 925.6 318.88 927.46 319.6 928.71 318.72 929.75 313.65 930 309.45 928.52 305.9 930.38 302.98 928.63 295.35 927.69 292.09 930.38 288.76 929.98 284.71 931.39 281.99 932.73 281.8 934 280.16 935.08 280.68 936.87 276.59 936.87 275.01 937.39 268.42 937.81 265.48 938.87 262.51 940.73 257.59 945.36 254.33 949.45 252.63 950.47 249.26 953.46 248.77 954.61 248.59 959.48 244.98 961.2 244.25 962.74 241.38 964.99 241.26 966.49 239.57 968.26 215.68 968.48 193.84 968.59 170.11 968.57 155.31 968.53 122.79 968.19 81.53 968.31 Z" id="Chubut"/>
<path d="M 609.13 514.1 607.87 515.26 605.93 515.42 604.39 517.13 601.7 515.15 601.61 513.55 602.84 510.94 604.66 510.11 608.39 512.02 609.13 514.1 Z" id="CiudaddeBuenosAires"/>
<path d="M 427.48 504.12 407.29 504.18 407.4 508.23 407.32 528.69 338.84 528.66 338.81 523.1 338.68 491.23 338.71 485.3 338.3 474.07 337.18 456.92 339.53 454.57 341.01 454.42 340.59 452.55 341.91 450.48 342.96 445.78 344.01 444.71 344.21 441.64 344.89 438.38 346.04 436.91 346.06 433.68 347.85 431.78 347.11 431.01 347.3 428.51 346.1 427.94 345.58 426.23 346.5 423.76 346.13 421.81 345.15 421.16 342.39 421.5 334.57 421.71 334.62 419.29 333.41 417.14 333.71 415.44 333.17 413.22 331.48 411.11 317.28 404.68 312 404.28 312.34 370.17 321.8 348.22 326.57 333.83 338.09 331.56 341.96 328.97 346.81 325.21 344.31 312.38 349.98 311.48 363.04 310.03 369.8 309.09 383.98 310.8 384.56 313.65 387.36 313.67 388.45 311.75 390.77 311.76 390.92 313.12 392.14 314.6 394.14 315.49 398.03 314.85 404.28 315.49 403.71 317.86 404.95 317.9 404.97 319.99 409.51 320.01 431.67 321.54 430.63 322.21 430.92 323.74 432.25 325.27 432.48 326.51 433.99 327.12 435.75 329.49 437.54 330.99 440.12 331.38 440.5 333.38 439.31 336.01 439.81 339.85 442.13 341.98 455.43 341.97 455.9 342.15 457.95 348.08 457.89 348.45 462.05 352.62 463.86 352.84 463.68 354.77 469.69 355.86 468.54 360.63 460.6 384.85 457.71 393.23 453.01 396.94 454.06 398.6 454.41 400.76 453.71 403.5 454.03 404.82 455.82 407.27 455.91 411.08 455.2 413.55 455.93 415.2 457.9 417.19 461.42 419.16 463.59 424.64 465.24 426.38 466.54 429.66 465.87 430.35 467.45 432.41 467.1 433.73 465.01 434.58 464.86 435.79 466.37 436.61 468.39 436.75 469.69 438.81 470.79 439.43 471.66 441.98 471.13 443.76 471.87 445.13 471.16 449.57 467.52 453.01 465.99 453.81 462.45 459.05 454.74 469.31 443.13 484.56 438.28 490.53 428.55 503.3 427.48 504.12 Z" id="Córdoba"/>
<path d="M 587.15 248.99 588.63 246.03 588.83 244.36 589.87 242.91 590.41 239.97 589.87 235.89 587.69 233.07 588.12 230.97 587.38 228.33 589.43 227.18 592.12 224.29 597.22 222.93 598.6 220.86 601.26 220.87 603.43 220.04 607.8 220.21 613.11 219.01 615.32 219.04 616.42 219.71 618.95 219.95 622.56 219.59 625.1 220.36 628.75 220.9 630.44 222.18 633.48 222.04 634.73 222.39 641 226.25 643.11 226.66 647.35 225.71 651.28 225.9 657.92 228.22 659.77 228.52 662.8 227.63 662.8 229.46 664.55 230.24 667.2 232.71 668.79 233.2 673.3 231.41 674.66 227.4 678.49 226.9 679.93 227.15 682.02 229.16 683.49 232.17 685.79 233.17 688.21 232.87 689.18 230.23 691.19 228.56 691.47 225.38 694.08 224.11 697.03 221.54 700.38 221.22 701.63 221.86 701.38 224.53 700.38 226.17 700.45 227.35 701.63 229.17 703.29 230.55 705.4 233.73 706.97 236.92 709.5 241.2 709.84 246.79 711.39 248.68 713.16 249.69 713 250.69 714.41 252.04 718.1 254.3 717.99 255.37 715.05 257.62 712.51 258.33 712.15 259.88 715.21 261.47 716.02 262.49 715.16 265.62 711.97 263.68 708.05 263.16 706.72 265.27 707.24 268.17 702.8 269.12 701.81 270.56 702.28 273.16 700.38 274.3 697.19 277.02 695.1 279.9 691.4 280.63 690.62 282.19 690.21 285.62 686.37 288.05 686.72 289.81 685.79 291.89 682.93 292.58 678.89 294.04 676.8 297.74 676.54 300.19 674.45 303.44 672.18 304.18 671.45 306.38 669.65 308.52 667.23 309.7 663.98 313.19 663.96 314.45 662.03 315.24 658.62 318.91 656.25 319.96 653.37 320.09 650.08 323.65 649.96 327.19 649.13 328.99 646.34 330.57 644.51 333.21 642.63 334.66 640.43 335.67 637.46 336 636.86 336.89 638.2 339.03 636.91 342.89 634.56 344.64 631.93 345.87 630.88 346.95 628.46 348.01 627.13 349.74 627.43 352.35 628.95 353.42 629.49 355.59 630.68 357.28 630.51 359.13 629.5 357.07 626.62 355.26 622.7 353.29 620.51 350.66 620.77 349.34 619.99 347.59 620.16 345.82 617.38 344.62 614.71 340.71 611.63 338.75 609.87 339.62 608.44 339.44 605.36 338.06 600.56 336.53 599.42 335.53 597.63 336.14 596.89 335.46 594.03 336.36 592.46 337.49 586.32 338.57 583.6 337.5 578.62 339.35 578 340.76 573.31 343.37 569.78 342.88 568.83 342.08 566.21 341.72 563.86 342.47 560.52 342.41 559.62 345.44 558.34 345.64 557.78 343.62 556.47 342.87 556.64 341.65 555.75 339.6 558 338.05 558.12 334.67 559.19 332.81 558.9 331.58 560.38 330.08 559.45 329.03 557.94 324.26 556.02 322.98 556.01 321.39 558.17 319.02 557.52 316.49 558.78 314.83 558.31 312.45 559.09 306.61 558.53 305.11 559.29 303.54 561.05 302.6 562.54 300.32 562.79 298.64 563.72 297.75 566.93 297.37 570.34 292.67 572.85 292.45 574.58 290.93 575.44 286.55 576.32 283.9 576.43 280.12 578.74 277.05 579.68 274.49 578.5 273.25 579.48 270.42 580.47 268.82 579.67 266.5 579.63 263.92 578.87 262.74 578.81 258.52 580.75 253.99 582.49 254.11 585.82 253.49 588.04 250.32 587.15 248.99 Z" id="Corrientes"/>
<path d="M 606.16 488.96 603.04 489.06 597.73 490.54 595.39 489.88 592.31 486.51 589.68 486.61 587.5 485.56 585.76 483.6 583.58 483.17 582.62 482.15 579.64 481.97 577.65 482.5 575.05 480.72 572.68 479.96 572.66 477.53 566.44 478.28 564.72 477.74 563.15 474.74 561.1 474.21 558.19 476.4 556.8 474.13 555.52 473.4 552.29 473.16 550.29 472.21 549.63 469.67 546.41 468.76 544.95 467.35 542.06 466.96 537.67 463.28 535.53 462.39 534.87 460.38 532.93 459.22 530.85 458.29 530.18 455.72 527.5 456.18 524.02 454.43 522.14 453.04 518.92 449.06 518.84 447.56 515.92 444.95 515.99 441.9 514.74 440.51 514.43 438 515.12 437.19 513.25 434.16 512.86 428.04 514.1 426.93 514.45 424.93 513.73 421.11 516 420.77 516.05 418.31 513.76 415.26 516.47 412.42 516.44 410.8 515.08 409.17 513.99 409.06 514.63 406.86 516.43 405.29 515.99 404 516.56 397.89 518.94 397.6 520.05 396.59 522.71 396.88 525.81 395.97 530.07 392.72 529.8 390.76 532.62 389.95 535.37 386.98 537.29 386.41 538.89 383.27 539.48 379.93 542.31 378.64 542.89 376.46 544.47 373.42 547.31 371.33 549.28 368.36 551.41 365.99 552.77 363.82 553.16 362.19 554.73 361.84 555.47 359.93 557.84 356.92 557.6 355.84 556.01 354.21 557.05 351.91 556.87 349.73 555.93 346.39 554.67 345.44 554.86 344.33 556.47 342.87 557.78 343.62 558.34 345.64 559.62 345.44 560.52 342.41 563.86 342.47 566.21 341.72 568.83 342.08 569.78 342.88 573.31 343.37 578 340.76 578.62 339.35 583.6 337.5 586.32 338.57 592.46 337.49 594.03 336.36 596.89 335.46 597.63 336.14 599.42 335.53 600.56 336.53 605.36 338.06 608.44 339.44 609.87 339.62 611.63 338.75 614.71 340.71 617.38 344.62 620.16 345.82 619.99 347.59 620.77 349.34 620.51 350.66 622.7 353.29 626.62 355.26 629.5 357.07 630.51 359.13 630.78 360.05 630.45 365.44 626.79 366.19 626.71 367.4 628.23 369.93 627.67 372.43 626.31 374.74 626.55 377.08 625.27 379.94 623.59 381.66 622.46 385.28 619.68 386.95 619.62 388.28 622.68 390.05 623.56 392.52 621.34 399.07 619.41 401.65 615.33 402.85 614.57 403.62 617.3 408.91 617.13 411.13 616.15 412.4 615.5 415.06 618.59 418.46 618.9 420.29 617.91 422.39 615.55 423.74 614.66 427.27 615.34 430.04 616.42 431.59 617.04 435.58 616.83 437.92 618.07 441.44 618.38 445.95 619.36 447.12 619.48 448.74 615.89 451.76 612.81 452.76 610.51 452.92 609.19 451.5 606.87 451.5 605.57 452.73 606.53 453.94 605.84 455.36 606.03 457.65 605.48 458.8 606.12 460.54 602.94 464.61 601.61 468.5 601.84 471.06 600.69 475.92 602.33 479.48 604.92 482.29 604.27 484.12 606.75 487.83 606.16 488.96 Z" id="EntreRíos"/>
<path d="M 608.28 203.66 606.85 203.13 606.79 201.48 603.39 200.9 601.33 199.12 599.8 196.33 595.56 194.39 595.02 192.47 592.83 192.86 592.27 191.33 590.92 190.15 588.5 189.21 588.1 187.87 585.45 186.35 584.38 184.56 581.14 183.62 580.02 183.74 578.29 182.02 575.2 181.93 572.19 182.82 570.01 181.99 568.68 182.41 567.41 181.17 567.11 178.72 565.78 175.25 564 175.58 556.1 173.5 556.04 170.33 554.66 169.69 552.72 167.12 552.65 166.27 549.54 164.21 548.14 161.34 542.21 158.15 541.5 156.92 538.78 155.49 535.13 154.96 535.28 153.6 534.19 153 533.38 151.03 533.84 149.92 532.48 148.37 530.95 148.18 529.98 144.84 526.19 142.33 525.49 140.54 523.88 139.67 523.01 137.21 517.76 135.95 516.84 134.47 514.94 134.32 512.56 132.19 510.32 131.71 506.88 129 505.01 127.14 503.39 126.31 502.83 125.11 501.18 124.54 499.04 122.01 498 121.86 496.15 117.38 495.05 117.51 494.13 115.26 488.14 114.71 485.38 113.81 484.59 114.19 483.2 112.28 480.22 109.61 480.07 108.71 475.84 107.28 474.63 105.86 474.46 104.57 470.46 102.12 468.31 101.31 466.52 99.83 461.15 98.12 457.77 97.72 455.93 95.84 453.59 94.59 451.46 94.46 449.11 93.57 449.17 89.02 449.22 27.69 449.78 27.93 452.73 29.83 453.6 31.41 453.14 32.62 454.98 34.87 454.94 37.62 455.78 37.54 457.57 40.68 459.4 41.86 461.26 44.1 462.53 46.42 462.7 48.52 463.42 50.04 465.5 51.84 468.46 52.67 470.19 55.28 472.66 56.45 473.41 58.79 476.07 60.63 478.51 60.6 479.9 61.5 483.03 65.15 487.15 67.6 488.65 67.03 493.57 71.13 494.98 70.83 499.12 73.66 498.97 75.51 502.85 80.94 503.67 81.64 505.67 81.37 509.94 84.13 513.54 84.23 516.51 85.43 518.81 85.25 519.58 86.97 522.25 87.81 524.16 87.61 527.04 88.81 528.15 90.37 530.12 91.11 538.25 90.75 541.05 89.65 556.66 98.61 563.09 102.16 566.02 105.67 567.62 106.16 568.77 108.54 573.47 111.16 575.62 111.94 578.52 114.08 580.91 114.38 582.52 115.53 585.27 116.42 591.04 120.13 594.39 120.54 596.67 122.48 600.22 122.19 603.12 123.18 605.89 124.77 606.07 126.06 608.72 127.84 609.76 129.1 612.99 126.49 615.37 127.94 616.91 128.23 617.65 129.57 619.42 129.78 620.18 130.87 622.87 130.67 623.68 132.42 625.26 132 627.89 132.3 628.9 133.87 631.33 135.19 632.37 137.75 637.2 142.97 637.26 144.08 639.58 145.49 640.59 146.91 640.05 149.72 640.35 150.82 638.88 152.1 638.7 153.58 635.98 153.16 635.68 155.49 632.81 155.5 632.23 159.16 630.22 159.95 630.96 162.28 628.57 163.53 629.26 165.79 627.53 166.57 628.86 169.33 626.64 170.09 625.09 171.66 621.21 173.59 619.64 173.74 618.23 175.22 618.31 178.55 616.4 179.49 616.69 182.03 616.03 183.46 614.83 184.08 614.59 185.72 615.78 187.08 614.04 187.65 614.67 188.79 614.09 190.27 615.22 192.5 614.32 195.25 612.75 195.08 613.04 198.63 611.53 200.59 608.69 202.01 608.28 203.66 Z" id="Formosa"/>
<path d="M 375.39 100.83 373.41 102.62 371.89 105.67 369.72 106.45 367.02 106.42 364.15 108.85 361.97 108.86 360.63 110.81 358.31 113.27 356.68 113.65 353.22 110.2 349.95 108.41 348.72 109.29 347.36 113.19 345.84 113.2 339.94 111.74 339.13 110.07 335.59 107.56 332.1 109.32 329.77 109.22 328.84 107.75 326.05 107.97 324.96 106.42 323.79 106.32 322.72 107.5 317.98 103.84 317.99 102.33 316.63 101.43 316.47 99.93 314.86 98.54 314.94 97.57 313.34 95.14 313.64 94.33 312.34 92.14 309.96 89.14 308.11 88.28 303.98 88.25 303.18 87.27 303.25 85.58 302.17 82.36 302.85 80.33 303.53 69.8 300.05 68.24 297.24 66.31 294.3 66.19 292.62 64.73 291.27 64.86 289.71 63.91 288.64 64.61 287.37 70.76 289.51 77.4 290.03 78.15 289.58 84.26 289.46 88.78 288.03 91.53 288.46 92.55 286.72 95.2 283.63 97.1 279.71 97.1 276.51 95.89 274.39 94.7 273.26 92.68 270.88 92.87 267.4 88.89 265.85 88.58 265.78 87.39 262.77 86.88 262.95 83.75 254.57 77.22 263.57 49.21 255.97 41.78 258.07 38.1 262.61 35.41 262.09 30.86 264.26 30.85 266.03 28.91 271.87 26.75 271.8 25.3 272.7 23.07 273.6 18.78 275.72 17.62 277.63 18.26 278.23 17.13 288.87 14.53 291.57 12.72 292.16 7.29 293.73 3.28 293.44 1 295.38 1.09 300.09 2.65 301.41 4.13 301.21 6.01 306.14 6.59 310.94 12.25 313.21 13.61 314.5 13.13 316.08 13.71 319.83 13 320.13 12.26 323.73 13.06 324.18 12.79 338.91 12.61 335.7 12.66 335.29 14.85 334.55 15.33 333.37 20.47 333.6 21.74 331.56 24.17 331.4 25.75 329.49 29.66 329.53 32.83 330.75 33.27 332.43 35.26 331.53 37.01 331.52 38.52 332.46 40.75 332.38 42.45 333.24 43.39 333.4 46.41 335.96 48.54 341.71 48.96 342.79 50.37 342.82 53.38 342.36 57.18 341.66 58.78 341.94 60.27 345.24 62.55 346.73 66.07 347.67 66.68 348.28 69.23 351.07 69.43 353.14 68.15 356.29 67.51 357.28 68.43 360.93 69.83 363.53 72.58 364.53 72.91 365.33 74.58 366.46 73.48 367.08 71.41 368.84 69.45 376.13 69.47 376.16 89.13 376.03 93.84 376.85 97.1 375.39 100.83 Z" id="Jujuy"/>
<path d="M 407.32 528.69 407.51 551.8 407.48 571.19 407.31 648.97 407.47 651.49 407.43 700.44 407.5 701.32 404.68 701.24 402.02 700.25 401.01 698.93 397.64 697.9 393.79 695.83 392.42 693.72 386.88 692.44 383.51 689.3 376.47 686.79 372.33 684.96 369.16 684.3 367.95 683.59 364.82 682.94 360.32 682.69 357.35 681.7 354.15 681.85 351.08 681.12 344.57 681.09 337.09 680.64 335.58 681.88 332.27 681.31 330 682.51 328.2 682.61 324.67 680.63 319.98 679.61 317.91 681.71 315.5 681.7 312.51 680.84 311.08 681.11 305.72 679.37 305.07 678.36 300.49 678.41 299 677.87 294.56 677.83 291.68 678.78 289.35 678.72 287.66 678.06 285.66 678.46 283.31 677.12 281.69 677.02 279.27 675.52 280.08 673.41 279.18 671.04 277.65 669.95 273.75 669.11 271.6 667.95 269.02 667.65 267.41 666.57 263.51 666.33 259.78 664.06 257.2 662.93 256.68 659.24 255.53 657.17 252.88 657.24 250.6 658.5 248.42 658.74 243.38 658.17 241.94 658.67 239.55 658.3 237.57 657.09 235.47 654.12 234.18 653.52 233.18 651.38 229.46 651.25 227.63 649.48 227.29 648.01 228.66 646.18 232.06 644.75 233.72 642.91 234.57 641.01 233.23 639.03 232.5 635.98 231.78 634.95 227.97 633.18 219.56 632.64 213.51 631.77 213.6 578.18 213.56 575.34 211.39 575.36 211.39 568.66 239.98 568.64 243.03 568.54 278.12 568.67 317.23 568.68 339.02 568.59 338.84 528.66 407.32 528.69 Z" id="LaPampa"/>
<path d="M 179.7 239.95 189.42 240.25 191.08 239.46 197.45 239.02 201.12 237.46 203.55 238.38 202.89 240.51 203.34 241.67 204.74 242.22 206.13 244.33 205.66 247.4 204.97 249.06 209.68 250.05 211.11 249.99 211.37 252 215.79 252.6 218.06 253.71 219.08 255.4 224.26 253.69 226.51 253.89 226.32 257.55 227.41 260.13 230.83 263.02 233.65 262.61 237.49 261.52 243.18 262.29 247.88 264.26 256.77 264.21 259.54 260.18 263.32 258.72 279.98 261.81 282.45 267.12 282.05 270.2 283.59 270.78 283.57 274.62 288.04 277.5 289.57 278.14 288.2 281.37 287.08 282.62 287.93 283.93 289.74 284.01 292.61 285.05 294.35 284.58 298.75 286.61 309.99 296.21 309.97 299.11 313.03 300.06 321.25 320.81 323.47 325.88 326.57 333.83 321.8 348.22 312.34 370.17 312 404.28 306.39 404.75 304.93 404.31 300.73 406.59 299.71 407.58 297.66 406.86 297.02 407.69 293.02 406.73 290.89 406.57 287.61 408.9 280.78 407.94 280.84 407.16 277.3 406.53 274.55 404.36 272.97 401.93 269.56 400.62 268.88 399.31 268.88 396.5 268.39 394.41 265.33 394.39 261.94 392.05 260.99 391.01 260.43 387.02 259.18 384.39 260.69 372.33 258.53 369.74 260.1 366 260.13 364.39 257.47 360.57 255.99 357.82 253.76 356.19 250.06 351.95 245.92 349.32 244.26 347.23 241.15 345.22 240.08 343.86 240.14 341.24 236.79 338.22 234.86 335.88 231.59 333.95 230.97 332.68 228.33 331.68 224.39 328.24 222.88 327.64 221.95 326.14 219.91 325 219.09 322.78 216.48 322.97 215.39 320.47 213.43 320.02 211.87 317.87 210.32 317.43 209.87 316 204.56 314.67 200.48 314.29 198.67 314.57 195.89 313.05 193.51 313.71 189.59 313.52 188.06 312.69 183.82 314.01 182.6 312.49 182.01 309.81 182.9 308.3 185 306.54 183.52 305.09 184.33 302.08 185.13 301.28 184.1 297.7 184.4 296.57 182.9 295.55 184.3 293.48 185.65 294.08 186.92 292.58 187.03 290.89 185.39 288.2 185.28 285.55 177.57 278.59 175.38 273.65 175.34 272.59 169.17 266.41 166.78 266.97 165.37 266.73 163.7 265.04 162.29 265.23 159.56 264.37 160.12 263.03 162.33 262.2 164.27 258.52 165 256.37 167.65 257.87 168.04 256.28 169.82 255.58 170.96 254.19 171.39 252.16 172.71 250.91 172.59 249.39 173.87 247.67 176.02 247.91 178.4 244.96 179.7 239.95 Z" id="LaRioja"/>
<path d="M 278.12 568.67 243.03 568.54 239.98 568.64 211.39 568.66 211.39 575.36 213.56 575.34 213.6 578.18 213.51 631.77 211.28 630.97 206.03 630.5 203.39 626.85 200.32 626.82 198.97 626.15 197.14 626.57 192.11 623.21 188.61 624.48 186.45 623.46 182.62 623.19 181.6 622.01 181.78 619.11 180.63 617.43 177.27 615.95 174.78 615.51 172.83 614.53 169.88 614.61 167.47 615.27 163.72 615.66 155.1 612.31 152.82 609.31 152.17 606.43 152.6 603.17 149.39 602.07 146.83 599.92 146.97 598.66 145.28 596.59 141.04 594.31 136.01 588.39 135.21 586.37 134.72 582.54 133.73 581.88 129.75 582.27 128 580.03 127.36 576.98 127.6 575.86 126.71 573.02 126.99 570.86 128.45 570.45 127.56 567.99 128.54 565.63 126.38 565.33 126.45 563.77 130.65 561.51 128.24 560.28 128.96 558.9 128.32 556.74 126.57 553.91 127.92 552.95 126.77 549.87 127.9 549.12 125.58 547.46 125.2 544.42 126.59 542.95 124.54 541.27 120.71 540.75 120.04 539.68 120.6 537.69 121.59 536.86 124.14 536.91 127.78 535.53 128.85 534.14 128.23 530.76 128.7 528.97 129.97 528.36 130.45 526.07 133.37 520.73 130.93 519.55 131.05 518.67 132.96 517.94 133.45 516.47 134.78 515.56 134.58 513.25 136.29 511.79 137.93 509.17 142.77 505.25 142.26 503.44 142.71 502.32 142.04 500.55 142.86 499.41 144.78 498.93 146.4 500.37 147.42 499.41 151.02 498.71 151.24 496.53 148.45 493.78 149.99 491.66 150.16 489.77 149.09 487.41 147.05 487.33 147.67 485.62 149.07 484.48 147.35 482.7 147.12 479.73 148.71 477.46 147.91 476.16 148.66 472.28 148.43 470.39 149.98 469.12 150.68 467.59 150.54 466.02 152.27 463.89 152.49 462.55 151.25 460.32 148.89 460.14 146.58 459.39 143.22 461.73 143.04 460.26 141.74 459.63 142.23 458.22 140.72 457.05 140.33 453.75 140.65 452.95 140.04 449.98 142.49 449.12 142.19 447.63 143.29 446.6 143.72 444.77 141.56 443.59 141.07 442.1 138.98 440.87 137.49 437.84 137.31 432.08 138.24 431.75 139.75 433.82 141.05 433.99 141.86 431.75 144.22 430.39 149.91 431.63 151.18 430.34 154 430.33 155.43 429.66 156 428.15 155.4 427.04 155.62 424.65 154.69 422.83 155.03 421.87 158.48 418.42 159.5 414.45 162.47 413.98 164.8 411.96 167.95 411.52 170.57 412.45 171.91 411.7 172.71 410.06 174.06 409.24 176.14 409.02 176.75 407.68 178.19 407.74 178.58 409.62 180.52 411.73 182.81 413.42 186.01 412.76 185.99 421.8 196.71 422.1 203.71 415.98 204.51 413.02 207.78 413.24 208.06 414.09 211.63 414.31 213.28 413.5 217.25 413.28 220.71 411.64 224.46 411.78 226.06 413.16 226.84 415.37 228.43 415.73 230.35 417.25 236.75 417.28 241.27 417.66 242.53 416.76 244.17 418.71 244.86 421.03 248.42 423.21 249.95 425.23 250.94 427.9 251.62 431.99 252.5 432.83 253.43 436.53 254.49 437.03 255.57 439.41 254.72 441.86 255.14 443.13 254.39 446.26 255.18 447.63 254.71 450.67 255.39 451.8 255.99 460.67 256.97 461.69 256.93 466.12 258.42 468.06 259.34 470.14 262.94 473.82 263.14 476.48 267.25 479.23 267.62 480.91 269.24 482.7 270.22 484.75 273.52 486.68 274.1 488.89 272.93 495.15 273.42 496.56 271.24 497.22 271.03 501.07 270.49 502.01 272.03 505.34 272.11 508.83 273.15 512.29 275.78 516.27 277.15 516.91 276.96 518.65 279.95 522.28 281.62 526.81 280.95 528.37 281.52 531.11 282.86 533.55 283.05 538.31 282.18 539.82 282.85 541.71 281.96 545.29 282.08 547.68 281.56 550.71 280.11 552.4 280.8 554.32 279.75 557.16 279.84 559.6 278.53 562.59 277.67 567.4 278.12 568.67 Z" id="Mendoza"/>
<path d="M 718.1 254.3 714.41 252.04 713 250.69 713.16 249.69 711.39 248.68 709.84 246.79 709.5 241.2 706.97 236.92 705.4 233.73 703.29 230.55 701.63 229.17 700.45 227.35 700.38 226.17 701.38 224.53 701.63 221.86 704.98 223.1 706.43 222.82 707.66 223.52 709.62 226.37 712.65 226.98 713.71 226.63 715.47 224.44 718.6 222.84 718.71 220.58 719.53 218.97 717.84 216.8 718.67 215.67 719.96 215.68 720.41 213.86 721.28 213.35 724.48 213.14 724.56 210.9 725.95 208.9 727.63 207.76 730.23 207.61 731.81 206.8 734.88 207.81 737.47 206.74 736.74 204.84 737.32 203.71 739.29 202.5 740.31 201.25 744.24 200.69 744.96 199.07 745.17 196.8 746.98 195.74 749.41 196.32 751.08 194.61 751.19 192.82 750.39 191.6 750.88 190.25 754.32 187.42 754.82 184.46 756.72 181.8 755.48 180.15 757.5 178.25 757.67 177.18 756.18 176.32 755.66 174.94 756.74 173.79 756.8 171.93 755.65 169.95 755.89 168.29 758.41 167.59 757.78 166.05 759.09 162.46 757.5 159.97 756.34 156.38 759.14 155.46 758.89 152.79 761 153.19 761.85 154.47 763.11 154.18 764.62 155.63 766.54 155.33 767.44 153.19 768.58 153.52 769.6 152.07 771.21 151.5 772.32 152.9 774.19 151.29 776.31 150.86 777.54 151.77 778.68 154.01 779.79 152.05 783.19 152.25 786.08 154.41 787.67 154.79 788.72 158.75 789.79 160.91 788.7 162.68 789.84 165.48 789.22 167.73 793.95 172.02 793.73 174.16 796.01 176.09 799 179.68 797.65 182.55 795.28 182.54 794.42 184.91 795.07 187.03 794.92 188.5 793.72 191.27 793.85 192.64 793.03 194.74 794.12 195.61 792.85 198.73 794.1 199.03 794.24 200.91 796.11 203.78 795.57 206.02 794.48 206.78 793.9 208.56 791.72 212.25 790.91 212.7 790.46 214.61 788.89 215.44 784.48 215.71 784.3 217.11 782.18 217.37 781.96 218.8 779.13 221.15 776.87 221.01 775.21 219.99 774.05 224.31 772.09 225.07 770.76 226.67 769.14 225.26 769.09 227.66 767.95 227.41 766.11 225.52 763.84 226.26 764.72 228.1 761.46 229.23 760.33 227.53 759.34 227.56 757.89 230.96 756.46 229.85 755.18 231.96 753.24 231.63 751.34 232.39 750.04 230.63 748.83 233.97 746.6 234.89 746.57 237.89 744.84 240.23 743.42 240 742.17 240.93 740.85 239.94 739.49 240.52 741.71 242.26 741.45 243.18 738.73 242.93 736.77 244.63 734.89 243.55 732.6 245.45 729.83 246.14 728.98 247.92 727.32 248.62 728.01 249.86 725.12 252.67 723.34 252.12 721.31 254.12 718.1 254.3 Z" id="Misiones"/>
<path d="M 126.71 573.02 127.6 575.86 127.36 576.98 128 580.03 129.75 582.27 133.73 581.88 134.72 582.54 135.21 586.37 136.01 588.39 141.04 594.31 145.28 596.59 146.97 598.66 146.83 599.92 149.39 602.07 152.6 603.17 152.17 606.43 152.82 609.31 155.1 612.31 163.72 615.66 167.47 615.27 169.88 614.61 172.83 614.53 174.78 615.51 177.27 615.95 180.63 617.43 181.78 619.11 181.6 622.01 182.62 623.19 186.45 623.46 188.61 624.48 192.11 623.21 197.14 626.57 198.97 626.15 200.32 626.82 203.39 626.85 206.03 630.5 211.28 630.97 213.51 631.77 213.41 676.12 218.2 678.66 220.34 684.05 222.65 687.69 219.75 688.29 214.75 687.37 213.73 688.08 211.62 687.85 205.44 689.89 202.93 691.46 200.57 692.02 196.52 695.27 196.88 696.6 193.99 698.91 190.82 699.97 190.49 702.67 189.55 704.13 188.1 704.54 183.5 708.75 178.98 709.51 174.06 711.09 172.2 712.58 168.89 717.15 166.4 719.05 164.68 719.56 162.98 720.89 160.79 721.01 153.8 723.41 148.7 724.88 146.27 726.26 144.4 727.89 143.11 730.44 143.59 732.89 144.52 733.23 145.11 735.74 143.74 735.71 140.83 738.41 141.58 739.46 140.83 743.34 139.45 744.47 136.05 745.49 136.42 747.72 133.72 748.62 132.13 748.4 126.48 750.01 124.77 748.97 122.45 748.7 118.35 750.61 116.78 752.1 113.84 751.84 108.29 752.76 105.93 754.03 103.96 754.48 101.86 757.55 99.58 757.65 98.58 758.98 98.78 760.51 101.63 763.3 102.24 764.7 100.88 767.64 98.54 769.06 97.96 770.42 93.92 772.28 89 772.09 84.98 770.17 81.84 769.52 79.39 770.05 73.09 769.43 69.49 769.79 67.01 767.45 69.1 766.88 68.57 764.23 66.29 761.85 66.22 759.67 65.09 758.99 65.03 757.46 67.45 755.83 69.58 753.65 69.9 752.31 68.64 750.84 69.7 748.11 69.68 746.64 71.04 744.82 73.81 745.92 75.65 744.75 76.91 743.11 75.98 740.3 74.68 739.71 72.9 740.52 70.18 737.23 71.23 735.91 71.34 733.12 72.76 732.19 75.42 733.27 76.71 731.5 75.79 730.05 77.3 727.48 79.64 724.63 77.48 722.69 75.99 722.85 76.43 720.74 74.87 717.56 75.91 715.74 74.71 713.96 75.43 712.11 78.65 712.53 78.79 713.56 83.24 713.94 84.87 711.82 83.19 710.94 82.16 709.31 84.42 708.27 86.02 703.48 87.56 702.17 88.39 699.89 87.3 695.25 86.5 694.65 87.28 690.09 85.93 688.06 86.36 685.46 88.38 684.85 89.78 683.69 92.63 682.72 92.99 681.21 95.9 681.19 99.68 678.82 103.23 679.38 106.32 679.15 107.93 676.5 107.19 675.33 110.23 672.46 109.65 670.2 107.4 669 105.03 666.4 104.24 666.36 102.49 657.2 103.5 655.46 101.57 653.55 103.99 652.85 101.48 650.84 100.86 647.46 98.76 646.71 99.04 644.29 96.97 642.24 97.11 638.93 94.96 636.59 95.65 633.82 98.3 631.91 97.85 630.49 98.52 626.95 97.26 624.75 95.36 623.91 94.78 619.56 96.84 618.55 98.74 616.94 97.95 614.37 99.63 613.27 97.7 611.44 96.65 608.57 99.11 607.51 99.81 606.26 97.55 605.85 98.26 603.02 98.04 601.25 98.87 597.8 100.23 596.89 102.78 596.6 101.7 594.64 101.1 591.38 101.7 590.7 101.8 587.82 104.97 588.84 107.55 587.58 107.76 584.72 109.41 585.44 110.62 584.54 111.78 585.85 113.76 585.87 115.78 585.01 116.06 583.58 114.85 582.3 115.97 580.9 115.09 579.59 120.47 575.71 121.87 574.38 123.61 575.81 126.47 574.95 126.71 573.02 Z" id="Neuquén"/>
<path d="M 407.5 701.32 407.43 703.33 407.41 728.47 407.63 736.97 407.54 756.8 412.03 757.37 415.29 757.17 418.93 758.83 420.98 759.37 425.06 761.48 426.52 763.3 430.72 767.52 431.4 769.36 431.06 769.51 427.75 771.69 423.2 772.94 420.92 774.26 417.29 774.83 410.69 774.6 405.43 775.02 398.59 774.77 391.58 774.92 388.29 774.05 384.33 771.27 376.91 769.34 374.69 768.97 370.69 766.81 363.73 764.35 361.41 763.12 353.21 761.28 348 761.8 347 760.63 349.51 758.87 347.14 759.12 344.97 758.75 342.4 759.14 338.67 761.92 338.35 763.64 337.21 765.04 336.7 767.53 336.81 770.87 338.45 779.89 340.34 785.04 341.99 786.12 343.05 787.86 343.52 790.07 342.03 793.75 342.14 797.54 343.35 799.05 341.51 801.76 340.79 804.12 340.34 808.4 317.27 808.58 293.34 808.65 266.33 808.58 243.22 808.38 214.11 808.67 183.12 808.78 165.72 808.72 147.93 808.65 123.3 808.35 99.52 808.47 72.79 808.47 72.87 808.91 71.58 806.96 72.46 805.68 71.65 801.77 72.81 799.78 71.69 796.59 70.13 795.54 67.94 792.76 70.23 790.56 69.26 789.13 70.21 787.73 68.73 784.4 66.98 782.84 68.26 780.47 69.16 777.08 67.89 774.97 69.8 774.48 69.52 771.87 70.63 771.03 69.49 769.79 73.09 769.43 79.39 770.05 81.84 769.52 84.98 770.17 89 772.09 93.92 772.28 97.96 770.42 98.54 769.06 100.88 767.64 102.24 764.7 101.63 763.3 98.78 760.51 98.58 758.98 99.58 757.65 101.86 757.55 103.96 754.48 105.93 754.03 108.29 752.76 113.84 751.84 116.78 752.1 118.35 750.61 122.45 748.7 124.77 748.97 126.48 750.01 132.13 748.4 133.72 748.62 136.42 747.72 136.05 745.49 139.45 744.47 140.83 743.34 141.58 739.46 140.83 738.41 143.74 735.71 145.11 735.74 144.52 733.23 143.59 732.89 143.11 730.44 144.4 727.89 146.27 726.26 148.7 724.88 153.8 723.41 160.79 721.01 162.98 720.89 164.68 719.56 166.4 719.05 168.89 717.15 172.2 712.58 174.06 711.09 178.98 709.51 183.5 708.75 188.1 704.54 189.55 704.13 190.49 702.67 190.82 699.97 193.99 698.91 196.88 696.6 196.52 695.27 200.57 692.02 202.93 691.46 205.44 689.89 211.62 687.85 213.73 688.08 214.75 687.37 219.75 688.29 222.65 687.69 220.34 684.05 218.2 678.66 213.41 676.12 213.51 631.77 219.56 632.64 227.97 633.18 231.78 634.95 232.5 635.98 233.23 639.03 234.57 641.01 233.72 642.91 232.06 644.75 228.66 646.18 227.29 648.01 227.63 649.48 229.46 651.25 233.18 651.38 234.18 653.52 235.47 654.12 237.57 657.09 239.55 658.3 241.94 658.67 243.38 658.17 248.42 658.74 250.6 658.5 252.88 657.24 255.53 657.17 256.68 659.24 257.2 662.93 259.78 664.06 263.51 666.33 267.41 666.57 269.02 667.65 271.6 667.95 273.75 669.11 277.65 669.95 279.18 671.04 280.08 673.41 279.27 675.52 281.69 677.02 283.31 677.12 285.66 678.46 287.66 678.06 289.35 678.72 291.68 678.78 294.56 677.83 299 677.87 300.49 678.41 305.07 678.36 305.72 679.37 311.08 681.11 312.51 680.84 315.5 681.7 317.91 681.71 319.98 679.61 324.67 680.63 328.2 682.61 330 682.51 332.27 681.31 335.58 681.88 337.09 680.64 344.57 681.09 351.08 681.12 354.15 681.85 357.35 681.7 360.32 682.69 364.82 682.94 367.95 683.59 369.16 684.3 372.33 684.96 376.47 686.79 383.51 689.3 386.88 692.44 392.42 693.72 393.79 695.83 397.64 697.9 401.01 698.93 402.02 700.25 404.68 701.24 407.5 701.32 Z" id="RíoNegro"/>
<path d="M 299.88 177.86 298.96 177.45 297.79 175.02 296.07 174.51 293.76 175.66 291.93 178.5 290.23 180.24 288.87 184.14 288.22 185.01 284.89 183.45 281.66 179.73 279.75 176.31 278.8 175.29 278.41 173.45 277.2 172.57 275.5 170.06 272.22 166.4 271.07 164.57 270.54 158.8 272.43 157.01 279.68 156.13 280.82 153.62 281.8 149.71 281.98 147.48 281.3 144.08 280.88 140.1 277.82 140.24 265.68 140.28 240.33 139.52 223.8 138.71 216.9 137.62 203.9 135.38 204.63 134.36 206.89 134.91 209.5 133.55 207.11 130.39 206.16 127.59 205.96 125.35 203.79 124.95 202.46 124.08 201.66 121.8 200.51 120.94 201.52 118.15 203.36 116.16 204.24 113.99 205.78 113.21 207.62 108.7 210.82 108.51 213.39 104.99 220.62 102.21 250.29 90.54 254.57 77.22 262.95 83.75 262.77 86.88 265.78 87.39 265.85 88.58 267.4 88.89 270.88 92.87 273.26 92.68 274.39 94.7 276.51 95.89 279.71 97.1 283.63 97.1 286.72 95.2 288.46 92.55 288.03 91.53 289.46 88.78 289.58 84.26 290.03 78.15 289.51 77.4 287.37 70.76 288.64 64.61 289.71 63.91 291.27 64.86 292.62 64.73 294.3 66.19 297.24 66.31 300.05 68.24 303.53 69.8 302.85 80.33 302.17 82.36 303.25 85.58 303.18 87.27 303.98 88.25 308.11 88.28 309.96 89.14 312.34 92.14 313.64 94.33 313.34 95.14 314.94 97.57 314.86 98.54 316.47 99.93 316.63 101.43 317.99 102.33 317.98 103.84 322.72 107.5 323.79 106.32 324.96 106.42 326.05 107.97 328.84 107.75 329.77 109.22 332.1 109.32 335.59 107.56 339.13 110.07 339.94 111.74 345.84 113.2 347.36 113.19 348.72 109.29 349.95 108.41 353.22 110.2 356.68 113.65 358.31 113.27 360.63 110.81 361.97 108.86 364.15 108.85 367.02 106.42 369.72 106.45 371.89 105.67 373.41 102.62 375.39 100.83 376.85 97.1 376.03 93.84 376.16 89.13 376.13 69.47 368.84 69.45 367.08 71.41 366.46 73.48 365.33 74.58 364.53 72.91 363.53 72.58 360.93 69.83 357.28 68.43 356.29 67.51 353.14 68.15 351.07 69.43 348.28 69.23 347.67 66.68 346.73 66.07 345.24 62.55 341.94 60.27 341.66 58.78 342.36 57.18 342.82 53.38 342.79 50.37 341.71 48.96 335.96 48.54 333.4 46.41 333.24 43.39 332.38 42.45 332.46 40.75 331.52 38.52 331.53 37.01 332.43 35.26 330.75 33.27 329.53 32.83 329.49 29.66 331.4 25.75 331.56 24.17 333.6 21.74 333.37 20.47 334.55 15.33 335.29 14.85 335.7 12.66 338.91 12.61 343.33 12.6 346.14 14.08 347.95 13.94 351.98 16.35 357.05 16.83 358.02 17.36 361.58 20.56 360.42 22.79 360.41 23.95 363.49 26.9 363.76 28.45 366.56 30.75 365.89 33.16 365.83 35.26 367.16 36.55 367.29 37.96 368.98 38.45 369.93 43.71 371.15 43.7 371.67 41.03 372.37 40.02 372.49 35.22 373.56 33.57 373.48 31.44 374.78 29.45 376.6 27.92 377.29 25.88 378.42 25.37 380.11 19.6 381.64 18.98 381.74 17.1 383.19 14.92 383.6 12.98 384.64 11.77 385.83 9.22 394.35 9.22 395.58 10.82 396.37 9.38 430.71 9.4 430.34 10.58 431.17 11.6 430.48 14.44 431.97 16.16 433.56 16.04 435.14 17.05 436.39 19.02 439.38 21.93 443.59 24.35 447.42 27.22 448.3 27.31 449.77 27.75 449.78 27.93 449.22 27.69 449.17 89.02 449.11 93.57 449.09 104.93 422.02 136.74 405.94 155.18 404.03 157.49 399.39 157.41 396.28 156.66 393.64 157.01 385.79 157.4 381.9 156.95 381.29 159.59 374.82 159.06 374.54 158.36 371.58 157.91 366.65 169 364.94 172.05 365.92 173.28 363.34 178.42 362.91 177.89 359.51 177.65 356.81 178.15 354.16 178.05 352.43 177.31 349.39 177.54 347.75 179.54 345.31 180.4 344.6 178.72 341.43 178.75 332.62 176.81 331.45 172.64 329.35 172.03 325.97 173.5 321.54 172.65 318.98 174.11 316.19 173.82 315.19 178.19 314.69 183.34 301.79 178.35 299.88 177.86 Z" id="Salta"/>
<path d="M 159.56 264.37 162.29 265.23 163.7 265.04 165.37 266.73 166.78 266.97 169.17 266.41 175.34 272.59 175.38 273.65 177.57 278.59 185.28 285.55 185.39 288.2 187.03 290.89 186.92 292.58 185.65 294.08 184.3 293.48 182.9 295.55 184.4 296.57 184.1 297.7 185.13 301.28 184.33 302.08 183.52 305.09 185 306.54 182.9 308.3 182.01 309.81 182.6 312.49 183.82 314.01 188.06 312.69 189.59 313.52 193.51 313.71 195.89 313.05 198.67 314.57 200.48 314.29 204.56 314.67 209.87 316 210.32 317.43 211.87 317.87 213.43 320.02 215.39 320.47 216.48 322.97 219.09 322.78 219.91 325 221.95 326.14 222.88 327.64 224.39 328.24 228.33 331.68 230.97 332.68 231.59 333.95 234.86 335.88 236.79 338.22 240.14 341.24 240.08 343.86 241.15 345.22 244.26 347.23 245.92 349.32 250.06 351.95 253.76 356.19 255.99 357.82 257.47 360.57 260.13 364.39 260.1 366 258.53 369.74 260.69 372.33 259.18 384.39 260.43 387.02 260.99 391.01 261.94 392.05 265.33 394.39 268.39 394.41 268.88 396.5 268.88 399.31 269.56 400.62 272.97 401.93 274.55 404.36 268.26 404.94 259.42 404.8 258.66 404.17 253.72 404.35 249.3 403.62 247.69 404.05 248.94 408.96 247.96 413.75 248.87 417.3 248.92 419.4 250.22 420.71 251.7 423.23 248.42 423.21 244.86 421.03 244.17 418.71 242.53 416.76 241.27 417.66 236.75 417.28 230.35 417.25 228.43 415.73 226.84 415.37 226.06 413.16 224.46 411.78 220.71 411.64 217.25 413.28 213.28 413.5 211.63 414.31 208.06 414.09 207.78 413.24 204.51 413.02 203.71 415.98 196.71 422.1 185.99 421.8 186.01 412.76 182.81 413.42 180.52 411.73 178.58 409.62 178.19 407.74 176.75 407.68 176.14 409.02 174.06 409.24 172.71 410.06 171.91 411.7 170.57 412.45 167.95 411.52 164.8 411.96 162.47 413.98 159.5 414.45 158.48 418.42 155.03 421.87 154.69 422.83 155.62 424.65 155.4 427.04 156 428.15 155.43 429.66 154 430.33 151.18 430.34 149.91 431.63 144.22 430.39 141.86 431.75 141.05 433.99 139.75 433.82 138.24 431.75 138.37 430.31 137.17 427.36 133.83 426 134.6 424.13 134.29 421.76 131.95 420.57 130.43 419.2 131.27 417.13 130.63 415.23 131.14 414.3 129.67 413.28 130.41 410.84 133.37 409.81 133.29 408.56 134.97 407.99 133.68 405.59 132.1 404.23 129.55 404.34 127.17 403.84 125.13 402.84 124.31 396.62 122.78 396.48 123.05 394.96 122.06 394.41 120.65 392.22 121.23 389.35 120.54 387.8 121.99 385.24 122.23 383.49 121.43 381.47 122.7 378.17 122.34 376.45 122.93 374.85 125.23 372.34 127.31 375.61 128.89 374.25 128.58 373.31 130.43 370.63 132.52 370.66 131.18 368.73 131.58 367.73 130.44 365.91 132.21 361.38 132.37 359.11 133.48 358.06 132.94 356.95 133.77 353.42 136.06 349.44 135.49 348.62 137.85 347.31 138.61 346.2 137.12 342.79 142.49 344.8 145.08 344.36 147.09 342.54 148.12 339.25 147.87 337.67 149.86 337.7 150.92 335.08 147.08 333.18 146.1 333.73 145.14 331.62 146.72 329.96 146.22 329.06 147.33 327.3 147.75 325.13 146.82 320.61 148.19 318.01 146.89 316.91 145.63 314.78 145.86 311.52 145.09 307.5 144.03 307.03 144.6 305.46 142.44 304.34 142.45 302.12 143.97 299.98 145.8 298.9 145.21 297.64 147.94 294.74 149.73 294.14 151.58 294.37 151.53 290.98 153.13 287.31 152.64 284.96 154.36 282.64 155.55 279.87 154.09 278.5 154.22 275.81 155.21 274.6 155.52 272.79 156.47 271.94 156.73 269.9 156.39 267.32 157.95 266.2 157.89 264.36 159.56 264.37 Z" id="SanJuan"/>
<path d="M 312 404.28 317.28 404.68 331.48 411.11 333.17 413.22 333.71 415.44 333.41 417.14 334.62 419.29 334.57 421.71 342.39 421.5 345.15 421.16 346.13 421.81 346.5 423.76 345.58 426.23 346.1 427.94 347.3 428.51 347.11 431.01 347.85 431.78 346.06 433.68 346.04 436.91 344.89 438.38 344.21 441.64 344.01 444.71 342.96 445.78 341.91 450.48 340.59 452.55 341.01 454.42 339.53 454.57 337.18 456.92 338.3 474.07 338.71 485.3 338.68 491.23 338.81 523.1 338.84 528.66 339.02 568.59 317.23 568.68 278.12 568.67 277.67 567.4 278.53 562.59 279.84 559.6 279.75 557.16 280.8 554.32 280.11 552.4 281.56 550.71 282.08 547.68 281.96 545.29 282.85 541.71 282.18 539.82 283.05 538.31 282.86 533.55 281.52 531.11 280.95 528.37 281.62 526.81 279.95 522.28 276.96 518.65 277.15 516.91 275.78 516.27 273.15 512.29 272.11 508.83 272.03 505.34 270.49 502.01 271.03 501.07 271.24 497.22 273.42 496.56 272.93 495.15 274.1 488.89 273.52 486.68 270.22 484.75 269.24 482.7 267.62 480.91 267.25 479.23 263.14 476.48 262.94 473.82 259.34 470.14 258.42 468.06 256.93 466.12 256.97 461.69 255.99 460.67 255.39 451.8 254.71 450.67 255.18 447.63 254.39 446.26 255.14 443.13 254.72 441.86 255.57 439.41 254.49 437.03 253.43 436.53 252.5 432.83 251.62 431.99 250.94 427.9 249.95 425.23 248.42 423.21 251.7 423.23 250.22 420.71 248.92 419.4 248.87 417.3 247.96 413.75 248.94 408.96 247.69 404.05 249.3 403.62 253.72 404.35 258.66 404.17 259.42 404.8 268.26 404.94 274.55 404.36 277.3 406.53 280.84 407.16 280.78 407.94 287.61 408.9 290.89 406.57 293.02 406.73 297.02 407.69 297.66 406.86 299.71 407.58 300.73 406.59 304.93 404.31 306.39 404.75 312 404.28 Z" id="SanLuis"/>
<path d="M 77.42 968.61 81.53 968.31 122.79 968.19 155.31 968.53 170.11 968.57 193.84 968.59 215.68 968.48 239.57 968.26 239.94 969.26 238.28 970.25 238.1 974.61 239.68 980.53 241.55 984.12 245.62 990.28 248.12 992.58 253.21 994.29 254.03 995.31 257.77 996.34 258.15 997.17 262.03 1000.85 265.58 1002.91 268.1 1005.62 271.62 1008.37 274.61 1009.63 278.03 1010.17 282.87 1009.94 289.2 1011.08 295.92 1011.83 301.39 1011.16 305.63 1011.5 309.04 1012.7 309.56 1013.96 313.43 1016.38 312.8 1017.33 314.39 1021.43 314.09 1025 312.48 1031.55 308.92 1038.33 307.18 1038.63 309.42 1044.07 311.62 1044.42 311.64 1046.13 307.05 1045.53 305.1 1047.09 304.87 1051.01 307.33 1052.26 301.4 1052.46 298.38 1053.16 296.26 1056.09 294.04 1056.29 292.65 1057.78 289.66 1059.35 288.27 1062.36 284.41 1062.69 283.49 1064.97 278.34 1065.35 273 1067.22 270.22 1068.99 268.18 1072.03 264.92 1072.48 258.11 1075.56 257.13 1078.2 255.78 1079.1 255.3 1080.83 253.38 1082.39 250.34 1083.05 246.62 1084.76 243.51 1086.68 240.19 1089.9 239.16 1092.53 237.75 1093.82 238.83 1095.44 236.65 1096.34 236.53 1098.39 238.7 1098.18 239.08 1100.06 236.82 1103.92 235.69 1107.55 234.04 1119.25 231.48 1123.75 228.91 1126.81 223.36 1130.16 217.21 1132.48 210.28 1133.11 207.17 1135.59 202.29 1136.88 193.87 1139.54 192.32 1139.71 188.02 1141.64 183.84 1145.62 180.11 1150.78 179.58 1153.06 178.2 1155.42 177.6 1157.91 178.03 1160.01 177.98 1164.06 173.03 1166.87 171.52 1168.81 176.36 1167.21 178.49 1173.63 179.8 1176.22 183.55 1186.49 185.44 1190.16 181.44 1190.65 177.87 1192.41 170.41 1190.23 167.68 1190.44 162.5 1191.89 165.1 1192.39 169.9 1191.55 179.51 1193.79 182.75 1192.38 184.93 1193.12 186.44 1195.82 189.21 1199.17 194.65 1207.06 200.71 1213.24 206.49 1218.32 209.15 1221.01 206.49 1221.4 200.35 1221.14 199.8 1220.37 194.85 1219.52 189.73 1219.21 183.78 1216.25 175.66 1214.11 163.83 1214.17 143.47 1208.14 67.75 1208.12 63.1 1207.26 62.01 1206.59 66.05 1204.93 65.44 1203.08 60.33 1199.06 58.88 1198.84 55.38 1196.65 51.48 1196.09 51.87 1193.43 49.85 1191.49 45.71 1191.52 46.17 1190.32 50.29 1186.78 49.85 1185.11 51.06 1183.23 49.06 1180.87 51.07 1180.44 52.85 1179.12 53.03 1177.91 51.19 1176.18 47.57 1173.93 47.04 1172.45 48.33 1171.37 48.46 1169.05 52.77 1169.46 52.61 1167.34 53.5 1163.28 51.52 1159.78 49.43 1158.36 51.36 1156.43 51.95 1154.56 47.2 1153.64 44.14 1152.24 41.59 1152.98 39.54 1155.43 33.87 1153.2 28.37 1154.95 25.77 1156.42 25.19 1157.81 21.73 1158.61 20.62 1159.73 17.42 1158.87 15.47 1157.79 17.61 1154.22 15.67 1152.78 11.93 1151.74 8.83 1148.88 9.9 1148.14 7.51 1143.01 5.98 1142.69 8.91 1140.22 5.24 1137.55 6.45 1136.42 2.56 1134.33 3.65 1130.4 5.48 1129.58 5.77 1127.46 1 1125.88 1.49 1124.57 5.42 1119.75 11.06 1117.64 14.74 1114.96 18.2 1109.19 21.24 1106.82 21.73 1105 20.32 1103.45 20.12 1099.54 17.57 1098.05 17.74 1095.42 20.95 1093.27 21.56 1091.48 23.22 1090.77 23.66 1088.2 26.46 1085.65 29.44 1086.84 31.74 1086.66 35.86 1082.82 37.81 1082.88 42.19 1080.08 41.71 1077.78 41.75 1073.64 40.19 1067.71 41.97 1067.53 43.19 1068.84 45.69 1068.76 48.4 1066.24 47.18 1064.82 49.55 1063.63 49.65 1062.04 52.18 1062.69 54.25 1060.99 50.77 1057.66 51.16 1053.83 48.6 1051.26 45.64 1050.8 46.2 1047.13 42.48 1046.09 42.46 1044.67 44.24 1043.1 44.63 1040.77 43.12 1038.73 45.93 1037.6 45.48 1036.44 48.12 1033.72 49.24 1033.77 50.92 1031.92 50.32 1031.09 51.69 1028.77 49.77 1027.03 52.71 1024.9 55.47 1024.95 57.02 1023.86 58.3 1021.41 60.56 1021.97 63.49 1020.09 62.79 1018.35 63.31 1016.58 68.02 1017.43 67.75 1015.79 69.36 1014.82 68.16 1012.6 65.34 1011.79 68.15 1008.74 65.29 1006.64 64.56 1004.46 66.1 1003.04 65.13 1000.92 67.11 1000.24 68.91 1000.47 72.58 998.9 75.8 996.36 77.44 995.85 77.52 993.84 76.68 993.01 76.6 989.48 73.08 982.15 74.26 979.23 71.75 976.04 68.96 976.09 67.86 973.4 72.94 972.72 76.7 969.92 77.42 968.61 Z" id="SantaCruz"/>
<path d="M 532.93 459.22 531.61 461.62 530.45 462.4 529.81 464.7 526.71 467.17 526.33 470.5 524.79 471.87 524.46 473.97 521.21 474.58 518.06 473.62 514.88 471.81 512.95 471.98 510.47 470.64 508.18 470.82 506.37 472.47 506.3 474.27 499.97 480.02 490.57 488.76 480.21 498.73 474.27 503.93 462.9 504.09 443.9 504.07 427.48 504.12 428.55 503.3 438.28 490.53 443.13 484.56 454.74 469.31 462.45 459.05 465.99 453.81 467.52 453.01 471.16 449.57 471.87 445.13 471.13 443.76 471.66 441.98 470.79 439.43 469.69 438.81 468.39 436.75 466.37 436.61 464.86 435.79 465.01 434.58 467.1 433.73 467.45 432.41 465.87 430.35 466.54 429.66 465.24 426.38 463.59 424.64 461.42 419.16 457.9 417.19 455.93 415.2 455.2 413.55 455.91 411.08 455.82 407.27 454.03 404.82 453.71 403.5 454.41 400.76 454.06 398.6 453.01 396.94 457.71 393.23 460.6 384.85 468.54 360.63 469.69 355.86 463.68 354.77 463.86 352.84 462.05 352.62 457.89 348.45 457.95 348.08 458.71 343.72 462.83 317.64 466.06 298.2 468.75 282.56 474.29 248.77 476.39 248.95 486.21 248.97 527.39 249.02 538.93 248.93 587.15 248.99 588.04 250.32 585.82 253.49 582.49 254.11 580.75 253.99 578.81 258.52 578.87 262.74 579.63 263.92 579.67 266.5 580.47 268.82 579.48 270.42 578.5 273.25 579.68 274.49 578.74 277.05 576.43 280.12 576.32 283.9 575.44 286.55 574.58 290.93 572.85 292.45 570.34 292.67 566.93 297.37 563.72 297.75 562.79 298.64 562.54 300.32 561.05 302.6 559.29 303.54 558.53 305.11 559.09 306.61 558.31 312.45 558.78 314.83 557.52 316.49 558.17 319.02 556.01 321.39 556.02 322.98 557.94 324.26 559.45 329.03 560.38 330.08 558.9 331.58 559.19 332.81 558.12 334.67 558 338.05 555.75 339.6 556.64 341.65 556.47 342.87 554.86 344.33 554.67 345.44 555.93 346.39 556.87 349.73 557.05 351.91 556.01 354.21 557.6 355.84 557.84 356.92 555.47 359.93 554.73 361.84 553.16 362.19 552.77 363.82 551.41 365.99 549.28 368.36 547.31 371.33 544.47 373.42 542.89 376.46 542.31 378.64 539.48 379.93 538.89 383.27 537.29 386.41 535.37 386.98 532.62 389.95 529.8 390.76 530.07 392.72 525.81 395.97 522.71 396.88 520.05 396.59 518.94 397.6 516.56 397.89 515.99 404 516.43 405.29 514.63 406.86 513.99 409.06 515.08 409.17 516.44 410.8 516.47 412.42 513.76 415.26 516.05 418.31 516 420.77 513.73 421.11 514.45 424.93 514.1 426.93 512.86 428.04 513.25 434.16 515.12 437.19 514.43 438 514.74 440.51 515.99 441.9 515.92 444.95 518.84 447.56 518.92 449.06 522.14 453.04 524.02 454.43 527.5 456.18 530.18 455.72 530.85 458.29 532.93 459.22 Z" id="SantaFe"/>
<path d="M 349.98 311.48 349.68 306.28 347.66 303.41 347.69 299.59 350.07 294 349.73 290.74 348.11 288.76 347.09 286.73 346.39 283.8 344.71 282.5 342.09 278.97 337.81 277.69 337.34 275.65 335.87 275.12 336.43 273.32 338.08 273.36 339.13 267.78 338.43 256.68 336.3 247.98 335.77 246.44 336.92 243.67 339.62 244.66 341.13 243.91 342.53 239.87 344.72 239.41 341.4 232.61 342.35 231.57 344.42 231.16 344.13 229.84 341.47 228.53 343.33 222.5 345.49 222.32 348.06 221.49 350.57 215.08 351.03 214.98 352.68 209.37 354.06 202.26 355.57 202.47 356 200.68 358.17 200.99 359.29 195.65 363.03 196.42 362.37 188.6 361.88 185.94 362.27 183.37 363.95 181.87 363.34 178.42 365.92 173.28 364.94 172.05 366.65 169 371.58 157.91 374.54 158.36 374.82 159.06 381.29 159.59 381.9 156.95 385.79 157.4 393.64 157.01 396.28 156.66 399.39 157.41 404.03 157.49 405.94 155.18 420.88 155.3 474.49 155.33 474.58 167.55 474.55 182.35 474.43 202.83 474.29 248.77 468.75 282.56 466.06 298.2 462.83 317.64 458.71 343.72 457.95 348.08 455.9 342.15 455.43 341.97 442.13 341.98 439.81 339.85 439.31 336.01 440.5 333.38 440.12 331.38 437.54 330.99 435.75 329.49 433.99 327.12 432.48 326.51 432.25 325.27 430.92 323.74 430.63 322.21 431.67 321.54 409.51 320.01 404.97 319.99 404.95 317.9 403.71 317.86 404.28 315.49 398.03 314.85 394.14 315.49 392.14 314.6 390.92 313.12 390.77 311.76 388.45 311.75 387.36 313.67 384.56 313.65 383.98 310.8 369.8 309.09 363.04 310.03 349.98 311.48 Z" id="SantiagodelEstero"/>
<path d="M 369.58 1316.42 370.11 1317.43 373.06 1317.83 377.04 1317.23 381.92 1318.31 383.32 1317.46 388.05 1316.72 390.4 1316.75 391.04 1318.08 388.96 1319.59 385.29 1320.37 383.21 1319.59 378.52 1321.06 376.21 1320.96 374.44 1321.94 372.82 1320.04 367.33 1321.64 366 1322.62 363.45 1322.77 357.68 1324.25 355.72 1322.45 353.15 1322.29 353.72 1320.26 356.76 1319.34 359.41 1320.79 361.32 1318.46 365.82 1318.45 369.02 1317.75 369.58 1316.42 Z M 291.36 1308.46 297.24 1310.33 303.84 1311.86 308.66 1313.6 315.5 1314.55 320.87 1314.11 325.33 1314.15 331.37 1313.13 333.54 1313.87 338.01 1314.09 335.36 1315.84 334.05 1320.61 330.59 1322.91 329.97 1324.86 326.73 1325.69 326.04 1323.77 324.29 1323.51 322.66 1325.45 319 1325.75 316.23 1326.93 314.6 1326.75 313.67 1324.31 310.14 1324.65 307.64 1323.97 303.17 1324.43 304.88 1325.68 304.08 1326.61 301.04 1327.46 295.53 1327.89 290.74 1327.7 288.78 1329.36 282.24 1330.28 277.2 1329.13 272.89 1326.6 254.22 1323.69 249.05 1322.69 246.8 1323.58 245.56 1322.82 241.96 1322.71 238.23 1323.39 232.79 1323.21 230.11 1322.42 221.87 1322.02 219.01 1321.11 215.59 1320.78 213.32 1319.81 208 1322.07 203.67 1321.94 200.8 1323.67 199.38 1322.93 198.91 1308.36 198.91 1303.67 198.99 1264.2 198.97 1234.45 201.56 1237.2 211.08 1245.5 212.59 1247.74 212.06 1250.48 206.17 1253.87 202.8 1255.12 202.49 1257.67 204.51 1259.73 210.93 1260.89 214.55 1260.35 217.61 1261.2 220.19 1264.15 220.67 1266.44 222.25 1269.75 225.04 1272.86 230.04 1276.18 233.84 1277.96 235.97 1279.96 239.74 1281.29 240.32 1283.7 241.74 1285.1 245.38 1287.24 249.56 1288.64 250.66 1290.07 257.97 1293.17 259.9 1293.29 265.1 1295.35 267.32 1296.78 273.29 1298.23 276.73 1301.77 284.81 1307.24 287.83 1307.5 291.36 1308.46 Z" fill-rule="evenodd" id="TierradelFuego"/>
<path d="M 335.77 246.44 328.41 242.67 326.56 243.42 323.08 245.96 322.23 248.43 321.14 249.15 319.4 248.92 318.37 247.79 316.72 247.4 315.59 244.69 315.08 242.24 313.12 240.05 311.78 240.48 311.02 243.06 309.9 242.75 309.65 239.46 308.5 236.33 306.91 236.45 306.18 235.33 305.69 232.82 304.39 230.88 304.06 226.8 304.45 224.99 303.32 221.24 299.49 220.19 297.28 218.77 299.08 217.47 300.08 215.26 301.73 213.42 303.16 212.92 304.45 210.55 306.52 209.38 308.83 205.26 307.25 203.78 308.99 199.91 307.65 198.16 304.93 196.65 303.13 195.03 300.71 193.66 297.31 193.48 296.65 192.57 296.75 187.82 297.51 186.72 297.19 185.25 299.01 184.9 299 180.16 299.9 179.59 299.88 177.86 301.79 178.35 314.69 183.34 315.19 178.19 316.19 173.82 318.98 174.11 321.54 172.65 325.97 173.5 329.35 172.03 331.45 172.64 332.62 176.81 341.43 178.75 344.6 178.72 345.31 180.4 347.75 179.54 349.39 177.54 352.43 177.31 354.16 178.05 356.81 178.15 359.51 177.65 362.91 177.89 363.34 178.42 363.95 181.87 362.27 183.37 361.88 185.94 362.37 188.6 363.03 196.42 359.29 195.65 358.17 200.99 356 200.68 355.57 202.47 354.06 202.26 352.68 209.37 351.03 214.98 350.57 215.08 348.06 221.49 345.49 222.32 343.33 222.5 341.47 228.53 344.13 229.84 344.42 231.16 342.35 231.57 341.4 232.61 344.72 239.41 342.53 239.87 341.13 243.91 339.62 244.66 336.92 243.67 335.77 246.44 Z" id="Tucumán"/>
</g>
</svg>