<?xml version="1.0"?>
<svg xmlns="http://www.w3.org/2000/svg" version="1.2" baseProfile="tiny" width="800" height="1233" viewBox="0 0 800 1233" stroke-linecap="round" stroke-linejoin="round">
<g id="gadm41_PRT_1">
<path d="M 262.26 442.74 244.03 442.35 242.63 436.56 253.3 436.65 251.66 429.45 253.71 419.11 245.53 411.65 239.8 414.97 230.86 413.57 232.72 402.95 230.22 398.05 221.07 397.01 218.53 408.13 214.58 410.79 206.05 407.46 201.77 402.45 182.23 387.9 190.39 359.45 201.51 355.89 210.21 346.71 210.09 338.84 202.56 340.82 197.54 345.64 197.73 350.85 189.48 357.98 202.82 320.35 211.54 290.74 215.13 270.11 217.55 270.27 236.14 270.2 243.15 265.42 251.71 268.58 253.02 261.38 273.36 266.23 273.81 261.45 287.1 263.71 298.06 255.23 305.99 258 313.75 263.16 312.79 271.1 319.14 270.7 326.25 276.71 334.61 279 346.93 271.77 347.38 276.86 337.06 286.27 338.15 298.13 344.1 305.54 336.8 309.75 328.79 305.71 323.3 310.49 313.67 306.07 307.95 308.16 312.29 314.91 310.73 319.71 300.27 332.88 289.29 336.42 291.14 342.69 299.94 352.58 298.58 360.64 310.25 365.08 295.28 369.84 299.84 376.4 301.36 390.56 291.31 394.7 288.98 398.57 293.09 406.73 284.22 414.4 283.92 424.32 283.54 428.89 275.22 428.78 271.34 432.94 261.93 436.13 262.26 442.74 Z" id="Aveiro"/>
<path d="M 360.72 1143.19 352.96 1148.82 324.08 1143.57 310.13 1134.87 303.31 1132.38 302.45 1123.41 298.25 1121.66 289.79 1123.89 283.65 1121.77 269.37 1124.86 268.37 1130.69 260.55 1135.82 251.11 1132.9 244.79 1133.92 232.31 1126.69 221 1129.31 215.46 1135.25 210.76 1129.4 194.24 1130.71 187.77 1121.66 179.31 1119.35 178.05 1117.31 181.83 1098.01 175.48 1086.57 177 1070.44 180.36 1056.93 176.72 1045.79 180.09 1029.84 182.57 1032.79 193.76 1030.98 204.53 1044.34 211.45 1041.98 218.12 1045.64 229.03 1044.77 229.82 1034.64 238.21 1029.62 237.54 1023.25 242.39 1021.38 254.66 1021.42 258.74 1018.91 281.11 1019.97 288.69 1019.14 297.39 1010.94 295.09 1007.95 298.25 998.58 298.79 988.55 292.73 980.76 285.98 982.87 274.41 974.15 273.31 968.23 276.74 959.34 284.56 958.13 284.03 954.11 299.36 953.9 301 942.61 311.56 944.32 313.93 940.16 337.73 933.72 337.75 923.67 334.54 916.15 329.21 910.95 334.84 912.1 352.82 910.95 358.19 909.45 363.73 915.42 372.81 911.8 405.3 925.76 414.95 928.54 425.88 928.37 436.77 935.86 447.11 939.38 455.31 937.17 466.17 938.54 471.45 942.06 476.49 940.61 487.92 942.16 507.79 924.28 514.85 915.13 521.69 915.82 526.12 910.66 539.62 908.5 544.35 919.86 550.57 925.85 561.08 928.37 558.94 933.7 570.04 945.72 580.37 942.28 586.18 946.74 603.6 938.35 621.52 934.65 622 938.97 615.44 944.94 616.17 952.38 609.16 962.72 608.69 973.75 605.79 981.64 596.07 983.04 582.8 976.55 575.77 979.95 575.58 984.39 569.14 988.39 558.18 986.15 547.86 988.81 544.89 1005.48 534.65 1024.61 529.16 1030.74 518.65 1037.49 506.74 1047.86 499.83 1058.86 498.57 1070.51 494.31 1073.74 482.02 1092.54 484.45 1099.55 466.36 1101.88 463.51 1105.61 442.9 1105.11 429.52 1107.87 402.8 1120.71 394.22 1121.37 390.09 1127.03 376.83 1127.43 367.41 1132.87 369.01 1138.03 360.72 1143.19 Z" id="Beja"/>
<path d="M 246.4 188.93 245.36 191.74 226.49 191.46 220.43 182.95 227.94 180.29 224.73 175.82 214.06 174.15 211.14 168.97 195.19 166.1 184.35 161.91 181.31 155.23 181.9 146.72 176.28 128.31 188.7 127.88 196.26 123.34 210.76 121.24 215.68 118.37 224.99 123.15 240.06 123.86 238.52 116.21 244.58 112.38 246.48 102.47 258.89 99.85 266.23 94.79 277.52 92.98 295.66 92.98 314.1 86.61 322.09 80.77 328.82 81.92 346.26 81.86 356.44 79.2 347.61 104.54 341.77 110.45 359.63 107.4 372.92 112.67 368.84 118.63 369.39 130.56 379.63 132.91 396.82 134.15 406.7 128.68 413.57 137.64 401.54 152.26 395.06 152.93 391.73 157.61 383.31 160.34 382.55 171.54 376.56 175.72 374.71 184.73 371.26 191.38 360.09 198.14 353.03 192.31 345.97 193.55 337.66 191.05 335.36 184.14 324.49 176.46 316.94 176.22 304.47 185.66 302.41 191.72 296.46 192.38 290.59 186.96 263.59 187.72 260.34 184.65 246.4 188.93 Z" id="Braga"/>
<path d="M 622.59 266.92 599.82 264.83 592.43 258.93 582.09 254.82 581.92 249.02 585.56 242.68 579 238.07 571.2 236.71 568.11 243.27 560.46 243.82 546.96 239.44 533.86 240.75 521.36 238.78 513.39 227.47 503.61 223.8 507.81 214.87 512.33 211.64 513.64 205.5 523.52 190.34 520.32 187.2 519.44 169.23 533.15 164.27 538.78 151.36 549.69 150.57 551.12 147.72 544.84 140.05 544.77 133.34 548.53 121.29 555.4 112.21 556.66 104.65 565.38 96.91 565.71 91.46 560.13 87.94 555.49 77.39 558.61 64.87 565.02 55.45 561.93 43.43 572.65 38.44 585.46 42.52 590.03 48.35 604.79 47.97 611.18 42.45 616.29 43.62 619.5 49.39 631.93 50.53 637.28 48.49 648.66 49.06 651.11 38.01 661.24 40 665.54 49.63 677.57 52.08 701.48 48.51 704.97 44.23 714.19 52.67 708.18 63.91 720.92 65.91 714.69 87.59 709.73 95.29 712.32 109.12 722.13 116.75 735.25 115.47 738.34 111.14 754.93 113.78 759.66 113.14 772.09 116.61 783.48 123.45 787.9 129.63 794.34 131.51 799 137.29 787.64 150 782.69 151.72 780.1 158.13 771.38 167.02 773.88 170.23 764.94 177.6 760.16 183.99 755.69 180.74 745.24 191.22 737.15 202.89 732.52 202.29 722.37 211.07 719.73 208.4 708.16 217.1 704.52 213.92 689.83 215.08 679.61 224.09 677.47 230.89 661.43 241.87 664.68 249.19 651.68 265.23 634.81 267.21 626.2 264.78 622.59 266.92 Z" id="Bragança"/>
<path d="M 464.46 597.22 454.76 601.27 446.59 595.04 436.08 600.7 434.58 608.26 426.82 609.47 423.29 615.15 410.15 621.55 412.15 610.21 404.73 604.86 404.73 601.2 388.85 590.41 380.53 587.75 378.63 573.22 370.98 576.12 367.46 572.61 355.46 574.36 356.62 578.5 351.61 590.34 352.06 601.72 336.61 603.97 332.09 600.94 316.62 597.97 313.46 595.61 314.41 572.7 310.8 564.12 305.9 566.57 300.8 560.12 303.38 548.91 318.64 547.03 324.46 541.9 333.12 538.85 340.37 527.26 349.75 521.74 361.45 519.88 366.68 516.3 376.17 516.38 379.8 511 391.87 510.9 388.57 503.8 400.83 497.81 410.15 499.54 421.72 495.29 431.68 487.02 431.23 482.02 418.33 473.99 413.98 468.38 419.85 462.11 420.3 456.95 431.87 455.29 437.55 449.58 448.82 447.23 459.32 440.09 460.59 435.08 478.58 436.06 483.17 429.92 483.5 424.58 490.49 417.76 496.55 416.09 512.5 421.11 522.79 418.87 529.66 413.31 541.99 414.59 540.71 430.92 530.35 444.83 549.17 450.18 555.73 443.62 566.16 447.94 573.94 444.35 575.05 438.15 581.9 435.32 586.45 445.4 598.97 445.45 602.91 442.64 617.81 450.37 614.99 454.98 603.72 458.61 601.2 468.69 602.65 479.34 606.31 483.28 617.15 484.12 625.09 490.89 625.92 495.88 637.95 507.98 633.19 516.51 633.6 525.69 630.15 532.82 629.17 542.33 620.5 551.02 613.18 553.19 608.76 560.39 611.78 565.71 607.71 573.32 609.28 576.34 602.58 589.93 590.81 592.88 577.07 591.5 570.28 594.05 546.48 590.79 538.17 592.24 526.95 596.97 517.08 594.59 510.48 595.66 498 591.83 479.89 590.67 475.16 592.98 468.62 592.69 464.46 597.22 Z" id="CasteloBranco"/>
<path d="M 182.23 387.9 201.77 402.45 206.05 407.46 214.58 410.79 218.53 408.13 221.07 397.01 230.22 398.05 232.72 402.95 230.86 413.57 239.8 414.97 245.53 411.65 253.71 419.11 251.66 429.45 253.3 436.65 242.63 436.56 244.03 442.35 262.26 442.74 261.93 436.13 271.34 432.94 275.22 428.78 283.54 428.89 283.92 424.32 298.91 427.38 308.35 434.51 318.43 430.49 327.98 429.57 340.89 430.99 358.41 420.04 367.7 418.52 379.08 410.96 384.93 409.7 396.1 399.14 409.39 393.11 409.63 397.08 416.85 402.88 413.52 407.18 405.99 408.6 409.72 415.76 416.78 415.33 416.69 425.69 424.36 436.39 415.83 438.03 411.79 444.52 420.3 456.95 419.85 462.11 413.98 468.38 418.33 473.99 431.23 482.02 431.68 487.02 421.72 495.29 410.15 499.54 400.83 497.81 388.57 503.8 391.87 510.9 379.8 511 376.17 516.38 366.68 516.3 361.45 519.88 349.75 521.74 340.37 527.26 342.46 518.39 331.29 505.1 334.42 494.29 326.01 490.27 318.74 499.21 313.55 495.81 304.49 499.59 297.75 509.36 304.26 514.18 300.77 519.79 295.47 517.61 283.18 526.9 276.88 529.68 272.46 510.21 267.21 505.33 251.97 514.9 244.46 515.28 243.87 520.43 237.52 520.93 237.38 506.29 227.99 505.03 222.4 513.42 215.77 513.87 214.27 509.05 204.39 505.29 187.34 501.8 174.89 507.69 156.09 501.06 162.36 486.02 163.74 478.89 160.53 473.09 152.38 467 159.65 453.05 167.81 432.99 182.23 387.9 Z" id="Coimbra"/>
<path d="M 580.37 942.28 570.04 945.72 558.94 933.7 561.08 928.37 550.57 925.85 544.35 919.86 539.62 908.5 526.12 910.66 521.69 915.82 514.85 915.13 507.79 924.28 487.92 942.16 476.49 940.61 471.45 942.06 466.17 938.54 455.31 937.17 447.11 939.38 436.77 935.86 425.88 928.37 414.95 928.54 405.3 925.76 372.81 911.8 363.73 915.42 358.19 909.45 352.82 910.95 334.84 912.1 329.21 910.95 319.69 905.03 304.59 902.92 302.67 898.66 291.9 898.49 301.15 889.01 288.72 866.45 280.85 857.26 268.01 863.13 255.46 864.13 250.31 856.52 242.04 861.42 232.5 860.61 222.24 855.5 216.67 856.35 212.54 842.5 233.72 825.83 242.32 822.51 251.88 806.01 238.3 805.68 249.64 795.03 256.61 798.26 264.31 790.28 272.93 789.8 278.88 783.41 287.41 787.57 292.21 782.72 299.65 784.31 310.42 792.84 315.69 789.8 326.84 800.93 334.84 803.26 339.03 795.62 323.92 787.76 330.86 781.03 303.88 771.29 310.87 763.94 314.5 752.36 318.81 752.84 327.03 744.38 332.45 742.88 340.72 746.76 344.05 756.6 347.83 754.96 348.07 747.83 351.7 745.52 365.32 753.7 363.3 763.35 376.18 760.78 386.45 755.29 398.05 771.05 418.49 774.04 430.07 768.51 432.06 763.73 440.34 770.1 443.83 766.06 453.91 769.86 462.63 760.26 472.04 760.57 477.37 756.88 474.8 751.06 479.48 747.28 484.43 752.6 491.1 754.01 496.45 759.4 495.48 766.87 505.77 772.28 504.58 778.51 506.7 785.33 513.19 796.48 524.02 797.22 528.85 790.82 536.22 787.16 539.81 790.25 548.05 785.45 556.06 794.94 551.02 800.33 557.48 808.15 545.15 814.26 542.78 820.65 541.49 835.22 544.44 841.76 543.54 847.23 538.66 850.17 531.49 864.81 527.76 881.31 537.79 885.92 541.78 893.12 558.18 908.76 564.55 918.39 572.27 924.76 572.3 929.77 580.37 942.28 Z" id="Évora"/>
<path d="M 381.08 1223.36 388.42 1224.81 395.63 1231.8 386.38 1231.94 373.69 1224.48 381.08 1223.36 Z M 295.43 1206.87 284.84 1201.16 264.78 1204.37 248.76 1200.73 242.72 1197.14 218.93 1195.36 209.57 1200.57 210.19 1204.3 195.81 1204.08 181.24 1209.72 172.37 1209.31 163.2 1214.71 155.76 1214.73 153.24 1218.96 144.63 1223.55 138.64 1218.35 135.89 1211.14 140.76 1202.28 145.58 1198.93 153.85 1185.33 153.66 1177.54 158.2 1172.14 164.12 1160.68 159.89 1148.35 166.33 1142.71 176.43 1126.27 179.31 1119.35 187.77 1121.66 194.24 1130.71 210.76 1129.4 215.46 1135.25 221 1129.31 232.31 1126.69 244.79 1133.92 251.11 1132.9 260.55 1135.82 268.37 1130.69 269.37 1124.86 283.65 1121.77 289.79 1123.89 298.25 1121.66 302.45 1123.41 303.31 1132.38 310.13 1134.87 324.08 1143.57 352.96 1148.82 360.72 1143.19 369.01 1138.03 367.41 1132.87 376.83 1127.43 390.09 1127.03 394.22 1121.37 402.8 1120.71 429.52 1107.87 442.9 1105.11 463.51 1105.61 466.36 1101.88 484.45 1099.55 488.54 1100.24 497.71 1117.12 496.62 1126.46 501.56 1131.71 501.16 1150.65 506.03 1159.57 509.43 1183.81 497.09 1182.48 472.99 1188.56 463.37 1192.65 459.59 1197.74 449.22 1204.13 435.37 1210.55 417.54 1221.06 409.86 1218.13 399.5 1222.7 395.15 1228.9 389.73 1224.55 381.56 1223.22 370.6 1223.29 345.76 1209.36 324.65 1203.11 308.37 1204.06 301.19 1207.36 295.43 1206.87 Z" fill-rule="evenodd" id="Faro"/>
<path d="M 533.86 240.75 546.96 239.44 560.46 243.82 568.11 243.27 571.2 236.71 579 238.07 585.56 242.68 581.92 249.02 582.09 254.82 592.43 258.93 599.82 264.83 622.59 266.92 627.94 274.17 639.54 285.6 644.65 299.94 651.66 301.86 653.35 310.61 648.07 311.91 649.78 322.13 647 336.06 655.23 354.41 643.01 377.09 653.59 380.8 654.92 390.04 651.23 391.51 641.99 404.28 644.6 413.03 658.31 424.96 656.1 432.16 639.21 440.38 637.64 448.77 628.3 451.24 617.81 450.37 602.91 442.64 598.97 445.45 586.45 445.4 581.9 435.32 575.05 438.15 573.94 444.35 566.16 447.94 555.73 443.62 549.17 450.18 530.35 444.83 540.71 430.92 541.99 414.59 529.66 413.31 522.79 418.87 512.5 421.11 496.55 416.09 490.49 417.76 483.5 424.58 483.17 429.92 478.58 436.06 460.59 435.08 459.32 440.09 448.82 447.23 437.55 449.58 431.87 455.29 420.3 456.95 411.79 444.52 415.83 438.03 424.36 436.39 416.69 425.69 416.78 415.33 409.72 415.76 405.99 408.6 413.52 407.18 416.85 402.88 409.63 397.08 409.39 393.11 419.93 390.99 425.96 386.36 447.09 380.44 466.24 372.43 477.41 354.86 472.68 346.69 464.41 338.39 470.57 333.54 467.43 329.65 457.61 325.25 465.7 314.39 466.98 308.94 472.9 304.26 484.07 304.97 498.57 318.17 502.63 315.67 510.43 302.79 516.82 300.77 517.32 294.71 526.35 289.57 528.94 280.56 518.13 275.83 527.07 268.16 524.09 262.88 527.85 255.27 529.21 246.15 533.86 240.75 Z M 516.23 297.39 514.02 301.22 505.13 300.84 508.93 292.5 516.23 297.39 Z" fill-rule="evenodd" id="Guarda"/>
<path d="M 101.46 689.78 96.76 694.94 86.28 697.25 82.79 690.4 86.19 684.27 83.24 677.42 72.57 676.81 68.38 674.36 60.33 681.89 49.8 679.89 45.95 673.38 43.36 663.19 48.42 662.88 64.96 654.44 76.73 645.6 90.06 630.22 104.32 619.64 112.9 609.4 111.12 601.15 119.03 582.61 118.84 578.12 145.25 524.83 156.09 501.06 174.89 507.69 187.34 501.8 204.39 505.29 214.27 509.05 215.77 513.87 222.4 513.42 227.99 505.03 237.38 506.29 237.52 520.93 243.87 520.43 244.46 515.28 251.97 514.9 267.21 505.33 272.46 510.21 276.88 529.68 283.18 526.9 295.47 517.61 300.77 519.79 304.26 514.18 297.75 509.36 304.49 499.59 313.55 495.81 318.74 499.21 326.01 490.27 334.42 494.29 331.29 505.1 342.46 518.39 340.37 527.26 333.12 538.85 324.46 541.9 318.64 547.03 303.38 548.91 300.8 560.12 291.9 558.94 290.1 565.12 282.7 566.62 278.23 570.56 272.48 568.57 266.23 573.13 258.63 565.5 258.67 558.13 253.75 550.93 245.74 552.47 236.45 561.1 229.58 564.05 217.65 561.53 206.86 566.78 208.43 580.57 218.34 583.97 214.2 592.26 201.72 597.16 205.17 604.31 205.55 612.56 208.97 615.75 203.34 622.73 191.91 628.13 195.24 635.19 188.08 636.21 177.86 634.48 153.85 638.52 146.96 648.69 143.8 656.34 137.69 655.82 130.51 664.95 134.13 673.5 132.22 678.69 124.6 679.59 121.55 675.55 115.11 675.64 101.64 685.41 101.46 689.78 Z" id="Leiria"/>
<path d="M 49.8 679.89 60.33 681.89 68.38 674.36 72.57 676.81 83.24 677.42 86.19 684.27 82.79 690.4 86.28 697.25 96.76 694.94 101.46 689.78 101.64 685.41 115.11 675.64 121.55 675.55 124.6 679.59 132.22 678.69 136.79 681.04 139.76 688.55 151.91 693.44 160.13 689.45 163.62 694.51 170.04 695.73 172.13 705.09 165.31 706.8 156.68 705.69 153.59 710.65 162.24 718.71 172.3 721.8 178.95 726.51 182.73 735.4 174.91 741.55 167.85 742.17 163.41 754.03 165.69 757.83 156.71 762.47 151.96 775.77 138.48 789.92 133.44 783.84 132.11 776.9 115.02 784.64 110.67 792.04 109.27 805.44 105.94 813.45 98.81 819.13 79.58 822.63 73.42 820.87 62.13 821.63 53.17 826.29 34.44 819.73 31.23 822.96 21.68 821.79 15.36 818.7 17.88 813.64 18.21 807.87 11.93 801.4 24.03 782.05 32.21 761.3 29.62 750.27 31.99 739.01 30.59 731.55 45.4 708.68 50.11 695.7 49.8 679.89 Z" id="Lisboa"/>
<path d="M 410.15 621.55 423.29 615.15 426.82 609.47 434.58 608.26 436.08 600.7 446.59 595.04 454.76 601.27 464.46 597.22 468.62 592.69 475.16 592.98 485.02 602.2 487.56 609.14 495.29 612.13 504.84 622.66 513.92 624.73 515.49 632.53 523.6 633.29 536.31 640.7 534.62 648.81 529.54 658.65 532.51 668.23 542.8 677.73 551.24 683.13 547.32 689.05 548.86 699.77 553.81 703.52 574.25 708.59 572.04 723.46 581.23 725.7 593.55 721.3 598.51 721.4 610.8 728.41 615.91 736.32 617.88 743.67 609.45 754.91 593.86 771.38 598.44 778.44 589.96 783.93 583.35 793.01 576.46 793.18 567.83 801.23 557.48 808.15 551.02 800.33 556.06 794.94 548.05 785.45 539.81 790.25 536.22 787.16 528.85 790.82 524.02 797.22 513.19 796.48 506.7 785.33 504.58 778.51 505.77 772.28 495.48 766.87 496.45 759.4 491.1 754.01 484.43 752.6 479.48 747.28 474.8 751.06 477.37 756.88 472.04 760.57 462.63 760.26 453.91 769.86 443.83 766.06 440.34 770.1 432.06 763.73 430.07 768.51 418.49 774.04 398.05 771.05 386.45 755.29 376.18 760.78 363.3 763.35 365.32 753.7 351.7 745.52 348.07 747.83 347.83 754.96 344.05 756.6 340.72 746.76 332.45 742.88 327.03 744.38 318.81 752.84 314.5 752.36 306.71 746.35 304.93 736.85 299.48 735.32 299.46 730.17 288.81 726.55 297.53 710.58 312.96 706.14 324.94 697.32 332.64 689.9 332.17 684.44 336.61 680.97 347.54 683.87 362.3 668.08 361.23 662.85 376.02 658.41 382.96 651.83 381.25 648.45 369.67 642.72 366.46 636.8 368.63 629.17 372.9 626.63 378.22 615.9 389.95 619 403.9 627.65 410.15 621.55 Z" id="Portalegre"/>
<path d="M 305.99 258 298.06 255.23 287.1 263.71 273.81 261.45 273.36 266.23 253.02 261.38 251.71 268.58 243.15 265.42 236.14 270.2 217.55 270.27 212.59 261.53 209.76 240.73 198.14 225.42 196.76 212.8 189.03 192.43 187.32 184.78 181.69 175.7 184.35 161.91 195.19 166.1 211.14 168.97 214.06 174.15 224.73 175.82 227.94 180.29 220.43 182.95 226.49 191.46 245.36 191.74 246.4 188.93 260.34 184.65 263.59 187.72 290.59 186.96 296.46 192.38 302.41 191.72 304.47 185.66 316.94 176.22 324.49 176.46 335.36 184.14 337.66 191.05 345.97 193.55 353.03 192.31 360.09 198.14 371.26 191.38 374.71 184.73 381.1 190.08 376.78 194.83 390.54 201.96 388.5 209.12 398.15 216.39 393.75 224.19 394.06 236 389.52 245.41 380.08 244.74 356.03 252.59 345.78 249.95 336.37 253.99 323.94 251.78 305.99 258 Z" id="Porto"/>
<path d="M 138.48 789.92 151.96 775.77 156.71 762.47 165.69 757.83 163.41 754.03 167.85 742.17 174.91 741.55 182.73 735.4 178.95 726.51 172.3 721.8 162.24 718.71 153.59 710.65 156.68 705.69 165.31 706.8 172.13 705.09 170.04 695.73 163.62 694.51 160.13 689.45 151.91 693.44 139.76 688.55 136.79 681.04 132.22 678.69 134.13 673.5 130.51 664.95 137.69 655.82 143.8 656.34 146.96 648.69 153.85 638.52 177.86 634.48 188.08 636.21 195.24 635.19 191.91 628.13 203.34 622.73 208.97 615.75 205.55 612.56 205.17 604.31 201.72 597.16 214.2 592.26 218.34 583.97 208.43 580.57 206.86 566.78 217.65 561.53 229.58 564.05 236.45 561.1 245.74 552.47 253.75 550.93 258.67 558.13 258.63 565.5 266.23 573.13 272.48 568.57 278.23 570.56 282.7 566.62 290.1 565.12 291.9 558.94 300.8 560.12 305.9 566.57 310.8 564.12 314.41 572.7 313.46 595.61 316.62 597.97 332.09 600.94 336.61 603.97 352.06 601.72 351.61 590.34 356.62 578.5 355.46 574.36 367.46 572.61 370.98 576.12 378.63 573.22 380.53 587.75 388.85 590.41 404.73 601.2 404.73 604.86 412.15 610.21 410.15 621.55 403.9 627.65 389.95 619 378.22 615.9 372.9 626.63 368.63 629.17 366.46 636.8 369.67 642.72 381.25 648.45 382.96 651.83 376.02 658.41 361.23 662.85 362.3 668.08 347.54 683.87 336.61 680.97 332.17 684.44 332.64 689.9 324.94 697.32 312.96 706.14 297.53 710.58 288.81 726.55 299.46 730.17 299.48 735.32 304.93 736.85 306.71 746.35 314.5 752.36 310.87 763.94 303.88 771.29 330.86 781.03 323.92 787.76 339.03 795.62 334.84 803.26 326.84 800.93 315.69 789.8 310.42 792.84 299.65 784.31 292.21 782.72 287.41 787.57 278.88 783.41 272.93 789.8 264.31 790.28 256.61 798.26 249.64 795.03 238.3 805.68 224.26 802.19 226.92 787.02 219 789.52 216.7 794.56 205.53 790.49 199.97 790.66 191.77 802.16 189.48 810.39 180.43 812.45 170.49 806.06 156.49 810.77 149.05 808.67 143.94 801.99 147.1 797.5 138.48 789.92 Z" id="Santarém"/>
<path d="M 160.96 994.42 164.27 991.48 170.87 979 179.79 957.01 182.76 946.06 184.47 929.89 183.54 915.89 180.71 903.41 173.25 888.08 172.51 881.21 180.71 882.74 187.96 888.49 208.83 887.37 202.1 881.81 197.28 881.62 196.83 871.71 189.48 856.66 186.99 861.75 189.03 871.26 178 872.71 164.74 865.39 154.85 863.58 146.61 870.9 135.41 873.09 131.63 877.46 115.64 883.62 90.75 884.83 84.28 889.63 78.37 888.84 87.07 870.85 87.49 861.27 80.53 842.97 69.29 829.38 73.71 826.57 88.09 825.55 94.98 827.24 103.85 835.46 113 827.57 129.02 823.86 120.82 816.33 143.61 805.89 149.05 808.67 156.49 810.77 170.49 806.06 180.43 812.45 189.48 810.39 191.77 802.16 199.97 790.66 205.53 790.49 216.7 794.56 219 789.52 226.92 787.02 224.26 802.19 238.3 805.68 251.88 806.01 242.32 822.51 233.72 825.83 212.54 842.5 216.67 856.35 222.24 855.5 232.5 860.61 242.04 861.42 250.31 856.52 255.46 864.13 268.01 863.13 280.85 857.26 288.72 866.45 301.15 889.01 291.9 898.49 302.67 898.66 304.59 902.92 319.69 905.03 329.21 910.95 334.54 916.15 337.75 923.67 337.73 933.72 313.93 940.16 311.56 944.32 301 942.61 299.36 953.9 284.03 954.11 284.56 958.13 276.74 959.34 273.31 968.23 274.41 974.15 285.98 982.87 292.73 980.76 298.79 988.55 298.25 998.58 295.09 1007.95 297.39 1010.94 288.69 1019.14 281.11 1019.97 258.74 1018.91 254.66 1021.42 242.39 1021.38 237.54 1023.25 238.21 1029.62 229.82 1034.64 229.03 1044.77 218.12 1045.64 211.45 1041.98 204.53 1044.34 193.76 1030.98 182.57 1032.79 180.09 1029.84 180.21 1018.88 178.36 1008.85 174.58 1003.19 167.76 1001.98 157.42 997.04 160.96 994.42 Z" id="Setúbal"/>
<path d="M 328.82 81.92 322.09 80.77 314.1 86.61 295.66 92.98 277.52 92.98 266.23 94.79 258.89 99.85 246.48 102.47 244.58 112.38 238.52 116.21 240.06 123.86 224.99 123.15 215.68 118.37 210.76 121.24 196.26 123.34 188.7 127.88 176.28 128.31 171.94 119.49 172.23 114.35 164.07 106.7 159.39 95.88 163.15 81.15 160.37 74.94 161.01 67.15 166.31 65.44 174.06 57.31 188.82 52.13 191.72 44.33 207.29 38.29 216.48 25.39 227.08 22.7 238.8 23.34 243.06 18.47 263.28 16.64 266.64 19.04 280.4 15.24 289.69 16.31 303.55 6.73 306.99 7.39 322.13 1 324.39 12.88 328.08 20.23 339.72 16.54 345.62 19.04 348.52 24.98 348.14 32.3 338.2 34.89 321.54 50.6 317.05 56.78 321.04 66.24 330.14 69.26 328.82 81.92 Z" id="VianadoCastelo"/>
<path d="M 356.44 79.2 365.7 75.54 371.5 67.31 387.28 64.32 390.85 53.55 395.22 53.62 396.05 62.58 394.2 69.62 406.25 67.96 405.37 64.44 431.97 61.82 439.69 58.16 450.86 64.46 465.67 64.58 460.16 76.01 469.86 76.7 478.27 75.06 490.94 69.19 498.71 68.29 500.8 74.4 509.1 79.79 514.47 73.95 531.32 73.66 544.99 68.1 558.61 64.87 555.49 77.39 560.13 87.94 565.71 91.46 565.38 96.91 556.66 104.65 555.4 112.21 548.53 121.29 544.77 133.34 544.84 140.05 551.12 147.72 549.69 150.57 538.78 151.36 533.15 164.27 519.44 169.23 520.32 187.2 523.52 190.34 513.64 205.5 512.33 211.64 507.81 214.87 503.61 223.8 485.47 227.04 482.9 230.46 466 236.76 448.27 235.24 441.46 239.79 421.65 237.76 412.83 239.28 401.78 236.26 389.52 245.41 394.06 236 393.75 224.19 398.15 216.39 388.5 209.12 390.54 201.96 376.78 194.83 381.1 190.08 374.71 184.73 376.56 175.72 382.55 171.54 383.31 160.34 391.73 157.61 395.06 152.93 401.54 152.26 413.57 137.64 406.7 128.68 396.82 134.15 379.63 132.91 369.39 130.56 368.84 118.63 372.92 112.67 359.63 107.4 341.77 110.45 347.61 104.54 356.44 79.2 Z" id="VilaReal"/>
<path d="M 409.39 393.11 396.1 399.14 384.93 409.7 379.08 410.96 367.7 418.52 358.41 420.04 340.89 430.99 327.98 429.57 318.43 430.49 308.35 434.51 298.91 427.38 283.92 424.32 284.22 414.4 293.09 406.73 288.98 398.57 291.31 394.7 301.36 390.56 299.84 376.4 295.28 369.84 310.25 365.08 298.58 360.64 299.94 352.58 291.14 342.69 289.29 336.42 300.27 332.88 310.73 319.71 312.29 314.91 307.95 308.16 313.67 306.07 323.3 310.49 328.79 305.71 336.8 309.75 344.1 305.54 338.15 298.13 337.06 286.27 347.38 276.86 346.93 271.77 334.61 279 326.25 276.71 319.14 270.7 312.79 271.1 313.75 263.16 305.99 258 323.94 251.78 336.37 253.99 345.78 249.95 356.03 252.59 380.08 244.74 389.52 245.41 401.78 236.26 412.83 239.28 421.65 237.76 441.46 239.79 448.27 235.24 466 236.76 482.9 230.46 485.47 227.04 503.61 223.8 513.39 227.47 521.36 238.78 533.86 240.75 529.21 246.15 527.85 255.27 524.09 262.88 527.07 268.16 518.13 275.83 528.94 280.56 526.35 289.57 517.32 294.71 516.82 300.77 510.43 302.79 502.63 315.67 498.57 318.17 484.07 304.97 472.9 304.26 466.98 308.94 465.7 314.39 457.61 325.25 467.43 329.65 470.57 333.54 464.41 338.39 472.68 346.69 477.41 354.86 466.24 372.43 447.09 380.44 425.96 386.36 419.93 390.99 409.39 393.11 Z M 516.23 297.39 508.93 292.5 505.13 300.84 514.02 301.22 516.23 297.39 Z" fill-rule="evenodd" id="Viseu"/>
</g>
</svg>